<?xml version="1.0" encoding="UTF-8" standalone="no"?>
<svg
   xmlns:dc="http://purl.org/dc/elements/1.1/"
   xmlns:cc="http://creativecommons.org/ns#"
   xmlns:rdf="http://www.w3.org/1999/02/22-rdf-syntax-ns#"
   xmlns:svg="http://www.w3.org/2000/svg"
   xmlns="http://www.w3.org/2000/svg"
   viewBox="0 0 438.62134 196.8"
   height="196.8"
   width="438.62134"
   xml:space="preserve"
   id="svg2"
   version="1.1"><metadata
     id="metadata8"><rdf:RDF><cc:Work
         rdf:about=""><dc:format>image/svg+xml</dc:format><dc:type
           rdf:resource="http://purl.org/dc/dcmitype/StillImage" /></cc:Work></rdf:RDF></metadata><defs
     id="defs6"><clipPath
       id="clipPath14"
       clipPathUnits="userSpaceOnUse"><path
         id="path12"
         d="m 131.74,550.57 h 328.966 v 147.6 H 131.74 Z" /></clipPath><clipPath
       id="clipPath36"
       clipPathUnits="userSpaceOnUse"><path
         id="path34"
         d="M 0,0 H 453.48 V 453.48 H 0 Z" /></clipPath><clipPath
       id="clipPath40"
       clipPathUnits="userSpaceOnUse"><path
         style="clip-rule:evenodd"
         id="path38"
         d="M 0,9.1553e-5 H 453.48 V 453.48009 H 0 Z" /></clipPath><clipPath
       id="clipPath44"
       clipPathUnits="userSpaceOnUse"><path
         style="clip-rule:evenodd"
         id="path42"
         d="M 6.757e-6,0 H 453.48001 V 453.48 H 6.757e-6 Z" /></clipPath><clipPath
       id="clipPath48"
       clipPathUnits="userSpaceOnUse"><path
         style="clip-rule:evenodd"
         id="path46"
         d="M 6.757e-6,0 H 453.48001 V 453.48 H 6.757e-6 Z" /></clipPath><clipPath
       id="clipPath52"
       clipPathUnits="userSpaceOnUse"><path
         style="clip-rule:evenodd"
         id="path50"
         d="M 6.757e-6,0 H 453.48001 V 453.48 H 6.757e-6 Z" /></clipPath><clipPath
       id="clipPath56"
       clipPathUnits="userSpaceOnUse"><path
         style="clip-rule:evenodd"
         id="path54"
         d="M 6.757e-6,0 H 453.48001 V 453.48 H 6.757e-6 Z" /></clipPath><clipPath
       id="clipPath60"
       clipPathUnits="userSpaceOnUse"><path
         style="clip-rule:evenodd"
         id="path58"
         d="M 6.757e-6,0 H 453.48001 V 453.48 H 6.757e-6 Z" /></clipPath><clipPath
       id="clipPath64"
       clipPathUnits="userSpaceOnUse"><path
         style="clip-rule:evenodd"
         id="path62"
         d="M 6.757e-6,0 H 453.48001 V 453.48 H 6.757e-6 Z" /></clipPath><clipPath
       id="clipPath208"
       clipPathUnits="userSpaceOnUse"><path
         id="path206"
         d="M 0,0 H 453.48 V 453.48 H 0 Z" /></clipPath><clipPath
       id="clipPath212"
       clipPathUnits="userSpaceOnUse"><path
         style="clip-rule:evenodd"
         id="path210"
         d="M 0,9.1553e-5 H 453.48 V 453.48009 H 0 Z" /></clipPath><clipPath
       id="clipPath216"
       clipPathUnits="userSpaceOnUse"><path
         style="clip-rule:evenodd"
         id="path214"
         d="M 6.757e-6,0 H 453.48001 V 453.48 H 6.757e-6 Z" /></clipPath><clipPath
       id="clipPath220"
       clipPathUnits="userSpaceOnUse"><path
         style="clip-rule:evenodd"
         id="path218"
         d="M 6.757e-6,0 H 453.48001 V 453.48 H 6.757e-6 Z" /></clipPath><clipPath
       id="clipPath224"
       clipPathUnits="userSpaceOnUse"><path
         style="clip-rule:evenodd"
         id="path222"
         d="M 6.757e-6,0 H 453.48001 V 453.48 H 6.757e-6 Z" /></clipPath><clipPath
       id="clipPath228"
       clipPathUnits="userSpaceOnUse"><path
         style="clip-rule:evenodd"
         id="path226"
         d="M 6.757e-6,0 H 453.48001 V 453.48 H 6.757e-6 Z" /></clipPath><clipPath
       id="clipPath232"
       clipPathUnits="userSpaceOnUse"><path
         style="clip-rule:evenodd"
         id="path230"
         d="M 6.757e-6,0 H 453.48001 V 453.48 H 6.757e-6 Z" /></clipPath><clipPath
       id="clipPath236"
       clipPathUnits="userSpaceOnUse"><path
         style="clip-rule:evenodd"
         id="path234"
         d="M 6.757e-6,0 H 453.48001 V 453.48 H 6.757e-6 Z" /></clipPath><clipPath
       id="clipPath240"
       clipPathUnits="userSpaceOnUse"><path
         style="clip-rule:evenodd"
         id="path238"
         d="M 6.757e-6,0 H 453.48001 V 453.48 H 6.757e-6 Z" /></clipPath><clipPath
       id="clipPath244"
       clipPathUnits="userSpaceOnUse"><path
         style="clip-rule:evenodd"
         id="path242"
         d="M 6.757e-6,0 H 453.48001 V 453.48 H 6.757e-6 Z" /></clipPath></defs><g
     clip-path="url(#clipPath14)"
     transform="matrix(1.3333333,0,0,-1.3333333,-175.65333,930.89333)"
     id="g10"><text
       id="text18"
       style="font-variant:normal;font-weight:normal;font-size:10.90909958px;font-family:CMBX10;-inkscape-font-specification:CMBX10;writing-mode:lr-tb;fill:#000000;fill-opacity:1;fill-rule:nonzero;stroke:none"
       transform="matrix(1,0,0,-1,351.613,732.071)"><tspan
         id="tspan16"
         y="0"
         x="0 6.2727327 9.7570992 20.208017 29.617115 33.101482 39.374214 42.858582 54.017498 62.942234 69.564056 76.533882 87.332802 96.393898 102.66663 113.12082 123.22592 130.19574 137.16557 140.64993 146.22557 152.32376 157.20232 160.68668 166.95941">4.4RigidBodyCommunication</tspan></text>
<g
       transform="translate(100.346,727.757)"
       id="g20"><path
         id="path22"
         style="fill:none;stroke:#000000;stroke-width:0.498;stroke-linecap:butt;stroke-linejoin:miter;stroke-miterlimit:10;stroke-dasharray:none;stroke-opacity:1"
         d="M 0,0 H 425.197" /></g><g
       transform="translate(129.511,549.64)"
       id="g24"><g
         transform="scale(0.80005)"
         id="g26"><g
           transform="scale(0.4135)"
           id="g28"><g
             id="g30"><g
               id="g32" /><g
               id="g180"><g
                 id="g178"
                 clip-path="url(#clipPath36)"><g
                   id="g70"><g
                     id="g68"
                     clip-path="url(#clipPath40)"><path
                       id="path66"
                       style="fill:#ffffff;fill-opacity:1;fill-rule:evenodd;stroke:none"
                       d="M 0,6.1035e-5 H 453.48 V 453.48006 H 0 Z" /></g></g><path
                   id="path72"
                   style="fill:#f2f2f2;fill-opacity:1;fill-rule:evenodd;stroke:none"
                   d="M 226.8,21.48 H 432 v 205.2 H 226.8 Z" /><path
                   id="path74"
                   style="fill:none;stroke:#000000;stroke-width:1;stroke-linecap:butt;stroke-linejoin:miter;stroke-miterlimit:10;stroke-dasharray:none;stroke-opacity:1"
                   d="M 226.8,21.48 H 432 v 205.2 H 226.8 Z" /><g
                   id="g82"><g
                     id="g80"
                     clip-path="url(#clipPath44)"><text
                       id="text78"
                       style="font-variant:normal;font-weight:normal;font-size:27.98399925px;font-family:CambriaMath;-inkscape-font-specification:CambriaMath;writing-mode:lr-tb;fill:#000000;fill-opacity:1;fill-rule:nonzero;stroke:none"
                       transform="matrix(1,0,0,-1,234,31.296)"><tspan
                         id="tspan76"
                         y="0"
                         x="0 18.525408 33.384911 56.667599 70.379761 78.159309 93.774384 99.930862">Domain 1</tspan></text>
</g></g><path
                   id="path84"
                   style="fill:#bfbfbf;fill-opacity:1;fill-rule:evenodd;stroke:none"
                   d="M 21.48,21.48 H 226.8 v 205.2 H 21.48 Z" /><path
                   id="path86"
                   style="fill:none;stroke:#000000;stroke-width:1;stroke-linecap:butt;stroke-linejoin:miter;stroke-miterlimit:10;stroke-dasharray:none;stroke-opacity:1"
                   d="M 21.48,21.48 H 226.8 v 205.2 H 21.48 Z" /><g
                   id="g94"><g
                     id="g92"
                     clip-path="url(#clipPath48)"><text
                       id="text90"
                       style="font-variant:normal;font-weight:normal;font-size:27.98399925px;font-family:CambriaMath;-inkscape-font-specification:CambriaMath;writing-mode:lr-tb;fill:#000000;fill-opacity:1;fill-rule:nonzero;stroke:none"
                       transform="matrix(1,0,0,-1,28.656,31.296)"><tspan
                         id="tspan88"
                         y="0"
                         x="0 18.525408 33.384911 56.667599 70.323792 78.103348 93.718414 99.706993">Domain 0</tspan></text>
</g></g><path
                   id="path96"
                   style="fill:#f2f2f2;fill-opacity:1;fill-rule:evenodd;stroke:none"
                   d="M 21.48,226.68 H 226.8 V 432 H 21.48 Z" /><path
                   id="path98"
                   style="fill:none;stroke:#000000;stroke-width:1;stroke-linecap:butt;stroke-linejoin:miter;stroke-miterlimit:10;stroke-dasharray:none;stroke-opacity:1"
                   d="M 21.48,226.68 H 226.8 V 432 H 21.48 Z" /><g
                   id="g106"><g
                     id="g104"
                     clip-path="url(#clipPath52)"><text
                       id="text102"
                       style="font-variant:normal;font-weight:normal;font-size:27.98399925px;font-family:CambriaMath;-inkscape-font-specification:CambriaMath;writing-mode:lr-tb;fill:#000000;fill-opacity:1;fill-rule:nonzero;stroke:none"
                       transform="matrix(1,0,0,-1,28.656,401.18)"><tspan
                         id="tspan100"
                         y="0"
                         x="0 18.525408 33.384911 56.667599 70.323792 78.103348 93.718414 99.706993">Domain 2</tspan></text>
</g></g><path
                   id="path108"
                   style="fill:#f2f2f2;fill-opacity:1;fill-rule:evenodd;stroke:none"
                   d="M 226.8,226.68 H 432 V 432 H 226.8 Z" /><path
                   id="path110"
                   style="fill:none;stroke:#000000;stroke-width:1;stroke-linecap:butt;stroke-linejoin:miter;stroke-miterlimit:10;stroke-dasharray:none;stroke-opacity:1"
                   d="M 226.8,226.68 H 432 V 432 H 226.8 Z" /><g
                   id="g118"><g
                     id="g116"
                     clip-path="url(#clipPath56)"><text
                       id="text114"
                       style="font-variant:normal;font-weight:normal;font-size:27.98399925px;font-family:CambriaMath;-inkscape-font-specification:CambriaMath;writing-mode:lr-tb;fill:#000000;fill-opacity:1;fill-rule:nonzero;stroke:none"
                       transform="matrix(1,0,0,-1,234,401.18)"><tspan
                         id="tspan112"
                         y="0"
                         x="0 18.525408 33.384911 56.667599 70.379761 78.159309 93.774384 99.930862">Domain 3</tspan></text>
</g></g><path
                   id="path120"
                   style="fill:#2f5597;fill-opacity:0.50196001;fill-rule:evenodd;stroke:none"
                   d="m 178.44,181.62 c 0,15.87 12.87,28.74 28.74,28.74 15.87,0 28.74,-12.87 28.74,-28.74 0,-15.87 -12.87,-28.74 -28.74,-28.74 -15.87,0 -28.74,12.87 -28.74,28.74 z" /><path
                   id="path122"
                   style="fill:none;stroke:#000000;stroke-width:1;stroke-linecap:butt;stroke-linejoin:miter;stroke-miterlimit:10;stroke-dasharray:none;stroke-opacity:0.50196001"
                   d="m 178.44,181.62 c 0,15.87 12.87,28.74 28.74,28.74 15.87,0 28.74,-12.87 28.74,-28.74 0,-15.87 -12.87,-28.74 -28.74,-28.74 -15.87,0 -28.74,12.87 -28.74,28.74 z" /><path
                   id="path124"
                   style="fill:#000000;fill-opacity:0.50196001;fill-rule:nonzero;stroke:none"
                   d="m 208.84,174.69 c 0,-0.53 0.03,-0.93 0.09,-1.2 0.06,-0.27 0.16,-0.48 0.31,-0.65 0.15,-0.17 0.37,-0.3 0.65,-0.4 0.28,-0.09 0.64,-0.17 1.07,-0.22 0.42,-0.05 0.99,-0.08 1.69,-0.1 v -1 h -10.09 v 1 c 1.01,0.05 1.73,0.11 2.16,0.19 0.44,0.07 0.77,0.19 0.99,0.34 0.23,0.16 0.4,0.38 0.5,0.66 0.11,0.28 0.16,0.74 0.16,1.38 v 11.07 c 0,0.36 -0.06,0.63 -0.19,0.8 -0.13,0.17 -0.32,0.25 -0.56,0.25 -0.29,0 -0.71,-0.15 -1.24,-0.45 -0.54,-0.3 -1.21,-0.71 -2,-1.24 l -0.6,1.05 6.39,3.81 h 0.75 c -0.05,-0.88 -0.08,-2.09 -0.08,-3.63 z" /><path
                   id="path126"
                   style="fill:#2f5597;fill-opacity:0.50196001;fill-rule:evenodd;stroke:none"
                   d="m 97.8,113.82 c 0,15.87 12.87,28.74 28.74,28.74 15.87,0 28.74,-12.87 28.74,-28.74 0,-15.873 -12.87,-28.74 -28.74,-28.74 -15.87,0 -28.74,12.867 -28.74,28.74 z" /><path
                   id="path128"
                   style="fill:none;stroke:#000000;stroke-width:1;stroke-linecap:butt;stroke-linejoin:miter;stroke-miterlimit:10;stroke-dasharray:none;stroke-opacity:0.50196001"
                   d="m 97.8,113.82 c 0,15.87 12.87,28.74 28.74,28.74 15.87,0 28.74,-12.87 28.74,-28.74 0,-15.873 -12.87,-28.74 -28.74,-28.74 -15.87,0 -28.74,12.867 -28.74,28.74 z" /><path
                   id="path130"
                   style="fill:#000000;fill-opacity:0.50196001;fill-rule:nonzero;stroke:none"
                   d="m 126.34,103.17 c -1.96,0 -3.43,0.78 -4.39,2.32 -0.96,1.55 -1.44,3.9 -1.44,7.05 0,1.67 0.15,3.12 0.45,4.34 0.29,1.22 0.71,2.23 1.24,3.02 0.53,0.8 1.17,1.39 1.92,1.77 0.74,0.38 1.56,0.57 2.44,0.57 1.99,0 3.48,-0.77 4.45,-2.3 0.98,-1.54 1.46,-3.87 1.46,-6.98 0,-3.22 -0.52,-5.66 -1.56,-7.31 -1.04,-1.65 -2.56,-2.48 -4.57,-2.48 z m -3.16,9.78 c 0,-2.97 0.27,-5.15 0.82,-6.54 0.55,-1.38 1.41,-2.08 2.56,-2.08 1.1,0 1.92,0.65 2.45,1.96 0.53,1.31 0.8,3.33 0.8,6.07 0,2.09 -0.14,3.79 -0.41,5.08 -0.27,1.3 -0.65,2.23 -1.14,2.8 -0.49,0.56 -1.08,0.84 -1.77,0.84 -0.62,0 -1.15,-0.18 -1.57,-0.56 -0.43,-0.37 -0.77,-0.91 -1.03,-1.61 -0.26,-0.7 -0.44,-1.55 -0.55,-2.56 -0.11,-1 -0.16,-2.14 -0.16,-3.4 z" /><path
                   id="path132"
                   style="fill:#ffffff;fill-opacity:0.50196001;fill-rule:evenodd;stroke:none"
                   d="m 116.4,240.66 c 0,15.87 12.87,28.74 28.74,28.74 15.87,0 28.74,-12.87 28.74,-28.74 0,-15.87 -12.87,-28.74 -28.74,-28.74 -15.87,0 -28.74,12.87 -28.74,28.74 z" /><path
                   id="path134"
                   style="fill:none;stroke:#000000;stroke-width:1;stroke-linecap:butt;stroke-linejoin:miter;stroke-miterlimit:10;stroke-dasharray:none;stroke-opacity:0.50196001"
                   d="m 116.4,240.66 c 0,15.87 12.87,28.74 28.74,28.74 15.87,0 28.74,-12.87 28.74,-28.74 0,-15.87 -12.87,-28.74 -28.74,-28.74 -15.87,0 -28.74,12.87 -28.74,28.74 z" /><path
                   id="path136"
                   style="fill:#000000;fill-opacity:0.50196001;fill-rule:nonzero;stroke:none"
                   d="m 139.48,244.97 v 2.59 c 1.05,0.5 2.04,0.88 2.96,1.12 0.92,0.25 1.81,0.37 2.66,0.37 1.03,0 1.93,-0.16 2.71,-0.48 0.77,-0.32 1.36,-0.77 1.77,-1.37 0.41,-0.6 0.61,-1.31 0.61,-2.14 0,-0.77 -0.15,-1.45 -0.46,-2.04 -0.31,-0.58 -0.74,-1.1 -1.3,-1.53 -0.56,-0.44 -1.29,-0.87 -2.18,-1.29 v -0.12 c 0.55,-0.1 1.09,-0.27 1.6,-0.51 0.52,-0.24 0.97,-0.55 1.38,-0.94 0.4,-0.38 0.72,-0.84 0.96,-1.37 0.24,-0.53 0.36,-1.14 0.36,-1.82 0,-1.06 -0.23,-1.99 -0.69,-2.81 -0.46,-0.82 -1.16,-1.47 -2.11,-1.94 -0.95,-0.48 -2.1,-0.71 -3.45,-0.71 -0.79,0 -1.63,0.09 -2.54,0.26 -0.9,0.18 -1.73,0.42 -2.49,0.71 v 2.89 h 1.64 c 0.32,-0.94 0.74,-1.63 1.26,-2.06 0.53,-0.43 1.24,-0.64 2.14,-0.64 1.18,0 2.08,0.32 2.68,0.97 0.61,0.64 0.91,1.6 0.91,2.86 0,1.33 -0.4,2.35 -1.2,3.05 -0.8,0.7 -1.98,1.05 -3.52,1.05 h -1.23 v 1.2 c 1.23,0.07 2.26,0.31 3.1,0.71 0.85,0.4 1.47,0.92 1.88,1.54 0.41,0.63 0.62,1.34 0.62,2.12 0,1.01 -0.27,1.79 -0.81,2.34 -0.54,0.54 -1.32,0.81 -2.35,0.81 -0.85,0 -1.55,-0.23 -2.09,-0.69 -0.53,-0.47 -0.93,-1.18 -1.18,-2.13 z" /><path
                   id="path138"
                   style="fill:#2f5597;fill-opacity:1;fill-rule:evenodd;stroke:none"
                   d="m 38.88,248.1 c 0,15.87 12.867,28.74 28.74,28.74 15.873,0 28.74,-12.87 28.74,-28.74 0,-15.87 -12.867,-28.74 -28.74,-28.74 -15.873,0 -28.74,12.87 -28.74,28.74 z" /><path
                   id="path140"
                   style="fill:none;stroke:#000000;stroke-width:1;stroke-linecap:butt;stroke-linejoin:miter;stroke-miterlimit:10;stroke-dasharray:none;stroke-opacity:1"
                   d="m 38.88,248.1 c 0,15.87 12.867,28.74 28.74,28.74 15.873,0 28.74,-12.87 28.74,-28.74 0,-15.87 -12.867,-28.74 -28.74,-28.74 -15.873,0 -28.74,12.87 -28.74,28.74 z" /><g
                   id="g148"><g
                     id="g146"
                     clip-path="url(#clipPath60)"><text
                       id="text144"
                       style="font-variant:normal;font-weight:normal;font-size:27.95999908px;font-family:CambriaMath;-inkscape-font-specification:CambriaMath;writing-mode:lr-tb;fill:#000000;fill-opacity:1;fill-rule:nonzero;stroke:none"
                       transform="matrix(1,0,0,-1,59.88,237.55)"><tspan
                         id="tspan142"
                         y="0"
                         x="0">2</tspan></text>
</g></g><path
                   id="path150"
                   style="fill:#000000;fill-opacity:1;fill-rule:nonzero;stroke:none"
                   d="m 104.91,201.74 -3.12,38.52 0.99,0.08 3.12,-38.52 z m -5.536,37.32 2.506,6.22 3.47,-5.74 z" /><path
                   id="path152"
                   style="fill:#ffffff;fill-opacity:0.50196001;fill-rule:evenodd;stroke:none"
                   d="m 217.68,95.34 c 0,15.87 12.87,28.74 28.74,28.74 15.87,0 28.74,-12.87 28.74,-28.74 0,-15.873 -12.87,-28.74 -28.74,-28.74 -15.87,0 -28.74,12.867 -28.74,28.74 z" /><path
                   id="path154"
                   style="fill:none;stroke:#000000;stroke-width:1;stroke-linecap:butt;stroke-linejoin:miter;stroke-miterlimit:10;stroke-dasharray:none;stroke-opacity:0.50196001"
                   d="m 217.68,95.34 c 0,15.87 12.87,28.74 28.74,28.74 15.87,0 28.74,-12.87 28.74,-28.74 0,-15.873 -12.87,-28.74 -28.74,-28.74 -15.87,0 -28.74,12.867 -28.74,28.74 z" /><path
                   id="path156"
                   style="fill:#000000;fill-opacity:0.50196001;fill-rule:nonzero;stroke:none"
                   d="m 245.63,85.569 c 0.57,0.145 0.94,0.307 1.14,0.484 0.19,0.178 0.31,0.43 0.37,0.758 0.06,0.328 0.09,0.828 0.09,1.502 v 2.239 h -7.59 v 1.024 l 7.99,12.054 h 1.95 V 91.876 h 0.28 c 0.53,0 0.91,0.039 1.14,0.116 0.23,0.077 0.41,0.214 0.56,0.41 0.15,0.195 0.29,0.516 0.42,0.962 h 1.04 l -0.17,-2.812 h -3.27 v -2.239 c 0,-0.61 0.02,-1.056 0.06,-1.338 0.04,-0.282 0.11,-0.505 0.2,-0.669 0.1,-0.164 0.24,-0.301 0.43,-0.41 0.18,-0.109 0.49,-0.218 0.91,-0.327 V 84.9 h -5.55 z m -3.74,6.307 h 5.34 v 3.399 c 0,0.856 0.01,1.814 0.04,2.874 0.03,1.061 0.06,1.861 0.1,2.401 h -0.14 l -5.34,-8.483 z" /><path
                   id="path158"
                   style="fill:#ffffff;fill-opacity:0.50196001;fill-rule:evenodd;stroke:none"
                   d="m 244.68,209.82 c 0,15.87 12.87,28.74 28.74,28.74 15.87,0 28.74,-12.87 28.74,-28.74 0,-15.87 -12.87,-28.74 -28.74,-28.74 -15.87,0 -28.74,12.87 -28.74,28.74 z" /><path
                   id="path160"
                   style="fill:none;stroke:#000000;stroke-width:1;stroke-linecap:butt;stroke-linejoin:miter;stroke-miterlimit:10;stroke-dasharray:none;stroke-opacity:0.50196001"
                   d="m 244.68,209.82 c 0,15.87 12.87,28.74 28.74,28.74 15.87,0 28.74,-12.87 28.74,-28.74 0,-15.87 -12.87,-28.74 -28.74,-28.74 -15.87,0 -28.74,12.87 -28.74,28.74 z" /><path
                   id="path162"
                   style="fill:#000000;fill-opacity:0.50196001;fill-rule:nonzero;stroke:none"
                   d="m 267.7,200.17 v 2.89 h 1.65 c 0.28,-0.93 0.69,-1.61 1.24,-2.05 0.55,-0.43 1.26,-0.65 2.13,-0.65 1.21,0 2.13,0.36 2.75,1.09 0.62,0.73 0.93,1.82 0.93,3.26 0,0.97 -0.17,1.77 -0.49,2.4 -0.33,0.63 -0.77,1.09 -1.33,1.37 -0.55,0.28 -1.2,0.42 -1.94,0.42 -0.62,0 -1.15,-0.03 -1.59,-0.11 -0.45,-0.08 -0.93,-0.2 -1.44,-0.36 l -1.09,0.64 v 8.98 h 7.52 c 0.31,0 0.53,0.03 0.67,0.08 0.14,0.05 0.25,0.12 0.33,0.23 0.08,0.1 0.18,0.3 0.29,0.59 h 1.06 l -0.2,-3.16 h -7.85 v -6 c 0.47,0.2 0.98,0.35 1.54,0.45 0.55,0.1 1.11,0.15 1.66,0.15 1.09,0 2.05,-0.22 2.88,-0.66 0.84,-0.44 1.49,-1.07 1.94,-1.88 0.46,-0.82 0.69,-1.76 0.69,-2.84 0,-1.22 -0.26,-2.26 -0.77,-3.14 -0.51,-0.87 -1.25,-1.53 -2.21,-1.99 -0.97,-0.45 -2.11,-0.68 -3.43,-0.68 -1.57,0 -3.22,0.32 -4.94,0.97 z" /><path
                   id="path164"
                   style="fill:#2f5597;fill-opacity:1;fill-rule:evenodd;stroke:none"
                   d="m 40.32,201.78 c 0,15.87 12.867,28.74 28.74,28.74 15.873,0 28.74,-12.87 28.74,-28.74 0,-15.87 -12.867,-28.74 -28.74,-28.74 -15.873,0 -28.74,12.87 -28.74,28.74 z" /><g
                   id="g168"><path
                     id="path166"
                     style="fill:none;stroke:#000000;stroke-width:1;stroke-linecap:butt;stroke-linejoin:miter;stroke-miterlimit:10;stroke-dasharray:4, 3;stroke-dashoffset:0;stroke-opacity:1"
                     d="m 40.32,201.78 c 0,15.87 12.867,28.74 28.74,28.74 15.873,0 28.74,-12.87 28.74,-28.74 0,-15.87 -12.867,-28.74 -28.74,-28.74 -15.873,0 -28.74,12.87 -28.74,28.74 z" /></g><g
                   id="g176"><g
                     id="g174"
                     clip-path="url(#clipPath64)"><text
                       id="text172"
                       style="font-variant:normal;font-weight:normal;font-size:27.95999908px;font-family:CambriaMath;-inkscape-font-specification:CambriaMath;writing-mode:lr-tb;fill:#000000;fill-opacity:1;fill-rule:nonzero;stroke:none"
                       transform="matrix(1,0,0,-1,61.296,191.3)"><tspan
                         id="tspan170"
                         y="0"
                         x="0">2</tspan></text>
</g></g></g></g></g></g></g><g
         transform="translate(-129.511,-549.64)"
         id="g182"><text
           id="text186"
           style="font-variant:normal;font-weight:normal;font-size:8.96640015px;font-family:CMBX9;-inkscape-font-specification:CMBX9;writing-mode:lr-tb;fill:#000000;fill-opacity:1;fill-rule:nonzero;stroke:none"
           transform="matrix(1,0,0,-1,100.346,535.991)"><tspan
             id="tspan184"
             y="0"
             x="0 4.1263371 9.2838106">(a)</tspan></text>
<text
           id="text194"
           style="font-variant:normal;font-weight:normal;font-size:8.96640015px;font-family:CMR9;-inkscape-font-specification:CMR9;writing-mode:lr-tb;fill:#000000;fill-opacity:1;fill-rule:nonzero;stroke:none"
           transform="matrix(1,0,0,-1,117.601,535.991)"><tspan
             id="tspan188"
             y="0"
             x="0 3.3265345 8.4463491 12.545787 17.405575 20.989447 23.549353 26.364803 31.228178 33.788086 38.907898 46.860199 51.468033 54.027939 59.923347 62.483253 67.351112 71.446968 76.054794 81.950203 87.330048 92.188942 97.308754 99.86866 103.9681 110.93858 114.52245 119.64227 122.20217 127.32198 131.42142 138.34976 141.93362 147.05344 151.66127 158.58064 162.41647 167.53629 172.14412 177.26393 181.87177 185.97121">Identifyingalllocalbodies(blue)thatchanged</tspan><tspan
             id="tspan190"
             y="10.959"
             x="-17.254999 -13.67113 -8.5513153 -4.4518776 -1.8919703 4.4562411 7.0161481 11.884007 15.979858 20.58769 25.891317 31.011131 35.618965 43.298687 47.906517 50.466427 58.32996 63.449772 68.569588 72.17408 74.733986 79.853806 87.214317 90.798187 95.918007 102.76116 106.39614 111.00397 113.56388 118.68369 122.26756 124.82747 129.4353 137.29884 140.93382 144.51768 148.61713 156.48065 161.08849 167.47615 171.06003 174.66452 179.27235 184.39217 188.02715">theirlocaldomainduringthesolutionstepastrans-</tspan><tspan
             id="tspan192"
             y="21.917"
             x="-17.254999 -14.43955 -10.340113 -3.6601443 1.7107292 6.578588 11.698402 14.258309 18.357748">ferbodies</tspan></text>
<g
           transform="translate(312.332,549.64)"
           id="g196"><g
             transform="scale(0.80005)"
             id="g198"><g
               transform="scale(0.4135)"
               id="g200"><g
                 id="g202"><g
                   id="g204" /><g
                   id="g382"><g
                     id="g380"
                     clip-path="url(#clipPath208)"><g
                       id="g250"><g
                         id="g248"
                         clip-path="url(#clipPath212)"><path
                           id="path246"
                           style="fill:#ffffff;fill-opacity:1;fill-rule:evenodd;stroke:none"
                           d="M 0,6.1035e-5 H 453.48 V 453.48006 H 0 Z" /></g></g><path
                       id="path252"
                       style="fill:#bfbfbf;fill-opacity:1;fill-rule:evenodd;stroke:none"
                       d="M 21.72,21.72 H 226.8 V 226.68 H 21.72 Z" /><path
                       id="path254"
                       style="fill:none;stroke:#000000;stroke-width:1;stroke-linecap:butt;stroke-linejoin:miter;stroke-miterlimit:10;stroke-dasharray:none;stroke-opacity:1"
                       d="M 21.72,21.72 H 226.8 V 226.68 H 21.72 Z" /><g
                       id="g262"><g
                         id="g260"
                         clip-path="url(#clipPath216)"><text
                           id="text258"
                           style="font-variant:normal;font-weight:normal;font-size:27.95999908px;font-family:CambriaMath;-inkscape-font-specification:CambriaMath;writing-mode:lr-tb;fill:#000000;fill-opacity:1;fill-rule:nonzero;stroke:none"
                           transform="matrix(1,0,0,-1,28.896,31.512)"><tspan
                             id="tspan256"
                             y="0"
                             x="0 18.50952 33.356281 56.618999 70.263481 78.036362 93.638039 99.789238">Domain 0</tspan></text>
</g></g><path
                       id="path264"
                       style="fill:#2f5597;fill-opacity:1;fill-rule:evenodd;stroke:none"
                       d="m 38.04,181.62 c 0,15.87 12.867,28.74 28.74,28.74 15.873,0 28.74,-12.87 28.74,-28.74 0,-15.87 -12.867,-28.74 -28.74,-28.74 -15.873,0 -28.74,12.87 -28.74,28.74 z" /><g
                       id="g268"><path
                         id="path266"
                         style="fill:none;stroke:#000000;stroke-width:1;stroke-linecap:butt;stroke-linejoin:miter;stroke-miterlimit:10;stroke-dasharray:4, 3;stroke-dashoffset:0;stroke-opacity:1"
                         d="m 38.04,181.62 c 0,15.87 12.867,28.74 28.74,28.74 15.873,0 28.74,-12.87 28.74,-28.74 0,-15.87 -12.867,-28.74 -28.74,-28.74 -15.873,0 -28.74,12.87 -28.74,28.74 z" /></g><g
                       id="g276"><g
                         id="g274"
                         clip-path="url(#clipPath220)"><text
                           id="text272"
                           style="font-variant:normal;font-weight:normal;font-size:27.95999908px;font-family:CambriaMath;-inkscape-font-specification:CambriaMath;writing-mode:lr-tb;fill:#000000;fill-opacity:1;fill-rule:nonzero;stroke:none"
                           transform="matrix(1,0,0,-1,59.04,171.1)"><tspan
                             id="tspan270"
                             y="0"
                             x="0">2</tspan></text>
</g></g><path
                       id="path278"
                       style="fill:#f2f2f2;fill-opacity:1;fill-rule:evenodd;stroke:none"
                       d="M 226.8,21.72 H 431.76 V 226.68 H 226.8 Z" /><path
                       id="path280"
                       style="fill:none;stroke:#000000;stroke-width:1;stroke-linecap:butt;stroke-linejoin:miter;stroke-miterlimit:10;stroke-dasharray:none;stroke-opacity:1"
                       d="M 226.8,21.72 H 431.76 V 226.68 H 226.8 Z" /><g
                       id="g288"><g
                         id="g286"
                         clip-path="url(#clipPath224)"><text
                           id="text284"
                           style="font-variant:normal;font-weight:normal;font-size:27.95999908px;font-family:CambriaMath;-inkscape-font-specification:CambriaMath;writing-mode:lr-tb;fill:#000000;fill-opacity:1;fill-rule:nonzero;stroke:none"
                           transform="matrix(1,0,0,-1,234,31.512)"><tspan
                             id="tspan282"
                             y="0"
                             x="0 18.50952 33.356281 56.674919 70.319397 78.176163 93.77784 99.8172">Domain 1</tspan></text>
</g></g><path
                       id="path290"
                       style="fill:#f2f2f2;fill-opacity:1;fill-rule:evenodd;stroke:none"
                       d="M 21.72,226.68 H 226.8 V 431.76 H 21.72 Z" /><path
                       id="path292"
                       style="fill:none;stroke:#000000;stroke-width:1;stroke-linecap:butt;stroke-linejoin:miter;stroke-miterlimit:10;stroke-dasharray:none;stroke-opacity:1"
                       d="M 21.72,226.68 H 226.8 V 431.76 H 21.72 Z" /><g
                       id="g300"><g
                         id="g298"
                         clip-path="url(#clipPath228)"><text
                           id="text296"
                           style="font-variant:normal;font-weight:normal;font-size:27.95999908px;font-family:CambriaMath;-inkscape-font-specification:CambriaMath;writing-mode:lr-tb;fill:#000000;fill-opacity:1;fill-rule:nonzero;stroke:none"
                           transform="matrix(1,0,0,-1,28.896,400.94)"><tspan
                             id="tspan294"
                             y="0"
                             x="0 18.50952 33.356281 56.618999 70.263481 78.036362 93.638039 99.789238">Domain 2</tspan></text>
</g></g><path
                       id="path302"
                       style="fill:#f2f2f2;fill-opacity:1;fill-rule:evenodd;stroke:none"
                       d="M 226.8,226.68 H 431.76 V 431.76 H 226.8 Z" /><path
                       id="path304"
                       style="fill:none;stroke:#000000;stroke-width:1;stroke-linecap:butt;stroke-linejoin:miter;stroke-miterlimit:10;stroke-dasharray:none;stroke-opacity:1"
                       d="M 226.8,226.68 H 431.76 V 431.76 H 226.8 Z" /><g
                       id="g312"><g
                         id="g310"
                         clip-path="url(#clipPath232)"><text
                           id="text308"
                           style="font-variant:normal;font-weight:normal;font-size:27.95999908px;font-family:CambriaMath;-inkscape-font-specification:CambriaMath;writing-mode:lr-tb;fill:#000000;fill-opacity:1;fill-rule:nonzero;stroke:none"
                           transform="matrix(1,0,0,-1,234,400.94)"><tspan
                             id="tspan306"
                             y="0"
                             x="0 18.50952 33.356281 56.674919 70.319397 78.176163 93.77784 99.8172">Domain 3</tspan></text>
</g></g><path
                       id="path314"
                       style="fill:#2f5597;fill-opacity:1;fill-rule:evenodd;stroke:none"
                       d="m 35.88,212.82 c 0,15.87 12.867,28.74 28.74,28.74 15.873,0 28.74,-12.87 28.74,-28.74 0,-15.87 -12.867,-28.74 -28.74,-28.74 -15.873,0 -28.74,12.87 -28.74,28.74 z" /><path
                       id="path316"
                       style="fill:none;stroke:#000000;stroke-width:1;stroke-linecap:butt;stroke-linejoin:miter;stroke-miterlimit:10;stroke-dasharray:none;stroke-opacity:1"
                       d="m 35.88,212.82 c 0,15.87 12.867,28.74 28.74,28.74 15.873,0 28.74,-12.87 28.74,-28.74 0,-15.87 -12.867,-28.74 -28.74,-28.74 -15.873,0 -28.74,12.87 -28.74,28.74 z" /><g
                       id="g324"><g
                         id="g322"
                         clip-path="url(#clipPath236)"><text
                           id="text320"
                           style="font-variant:normal;font-weight:normal;font-size:27.98399925px;font-family:CambriaMath;-inkscape-font-specification:CambriaMath;writing-mode:lr-tb;fill:#000000;fill-opacity:1;fill-rule:nonzero;stroke:none"
                           transform="matrix(1,0,0,-1,56.832,202.34)"><tspan
                             id="tspan318"
                             y="0"
                             x="0">2</tspan></text>
</g></g><path
                       id="path326"
                       style="fill:#2f5597;fill-opacity:1;fill-rule:evenodd;stroke:none"
                       d="m 183.36,181.62 c 0,15.87 12.87,28.74 28.74,28.74 15.87,0 28.74,-12.87 28.74,-28.74 0,-15.87 -12.87,-28.74 -28.74,-28.74 -15.87,0 -28.74,12.87 -28.74,28.74 z" /><g
                       id="g330"><path
                         id="path328"
                         style="fill:none;stroke:#000000;stroke-width:1;stroke-linecap:butt;stroke-linejoin:miter;stroke-miterlimit:10;stroke-dasharray:4, 3;stroke-dashoffset:0;stroke-opacity:1"
                         d="m 183.36,181.62 c 0,15.87 12.87,28.74 28.74,28.74 15.87,0 28.74,-12.87 28.74,-28.74 0,-15.87 -12.87,-28.74 -28.74,-28.74 -15.87,0 -28.74,12.87 -28.74,28.74 z" /></g><g
                       id="g338"><g
                         id="g336"
                         clip-path="url(#clipPath240)"><text
                           id="text334"
                           style="font-variant:normal;font-weight:normal;font-size:27.95999908px;font-family:CambriaMath;-inkscape-font-specification:CambriaMath;writing-mode:lr-tb;fill:#000000;fill-opacity:1;fill-rule:nonzero;stroke:none"
                           transform="matrix(1,0,0,-1,204.38,171.1)"><tspan
                             id="tspan332"
                             y="0"
                             x="0">1</tspan></text>
</g></g><path
                       id="path340"
                       style="fill:#2f5597;fill-opacity:0.50196001;fill-rule:evenodd;stroke:none"
                       d="m 97.92,113.94 c 0,15.87 12.87,28.74 28.74,28.74 15.87,0 28.74,-12.87 28.74,-28.74 0,-15.873 -12.87,-28.74 -28.74,-28.74 -15.87,0 -28.74,12.867 -28.74,28.74 z" /><path
                       id="path342"
                       style="fill:none;stroke:#000000;stroke-width:1;stroke-linecap:butt;stroke-linejoin:miter;stroke-miterlimit:10;stroke-dasharray:none;stroke-opacity:0.50196001"
                       d="m 97.92,113.94 c 0,15.87 12.87,28.74 28.74,28.74 15.87,0 28.74,-12.87 28.74,-28.74 0,-15.873 -12.87,-28.74 -28.74,-28.74 -15.87,0 -28.74,12.867 -28.74,28.74 z" /><path
                       id="path344"
                       style="fill:#000000;fill-opacity:0.50196001;fill-rule:nonzero;stroke:none"
                       d="m 126.46,103.3 c -1.97,0 -3.43,0.77 -4.39,2.32 -0.96,1.55 -1.44,3.89 -1.44,7.04 0,1.68 0.14,3.13 0.44,4.35 0.3,1.21 0.71,2.22 1.24,3.02 0.53,0.8 1.17,1.38 1.92,1.77 0.75,0.38 1.56,0.57 2.44,0.57 2,0 3.48,-0.77 4.45,-2.31 0.98,-1.53 1.47,-3.86 1.47,-6.97 0,-3.23 -0.53,-5.66 -1.57,-7.31 -1.04,-1.66 -2.56,-2.48 -4.56,-2.48 z m -3.17,9.77 c 0,-2.96 0.27,-5.14 0.82,-6.53 0.55,-1.39 1.41,-2.08 2.56,-2.08 1.11,0 1.92,0.65 2.45,1.96 0.54,1.3 0.8,3.33 0.8,6.07 0,2.09 -0.13,3.78 -0.41,5.08 -0.27,1.3 -0.65,2.23 -1.14,2.79 -0.48,0.57 -1.07,0.85 -1.76,0.85 -0.63,0 -1.16,-0.19 -1.58,-0.56 -0.42,-0.37 -0.77,-0.91 -1.03,-1.61 -0.25,-0.7 -0.44,-1.55 -0.55,-2.56 -0.11,-1.01 -0.16,-2.14 -0.16,-3.41 z" /><path
                       id="path346"
                       style="fill:#000000;fill-opacity:1;fill-rule:nonzero;stroke:none"
                       d="m 236.09,153.35 -29.7,-10.41 0.33,-0.94 29.71,10.41 z m -29.58,-7.72 -4.67,-4.82 6.65,-0.84 z" /><path
                       id="path348"
                       style="fill:#000000;fill-opacity:1;fill-rule:nonzero;stroke:none"
                       d="m 105.07,181.48 -6.151,33.95 0.984,0.18 6.147,-33.96 z m -8.433,32.52 1.883,6.44 4.02,-5.37 z" /><path
                       id="path350"
                       style="fill:#2f5597;fill-opacity:1;fill-rule:evenodd;stroke:none"
                       d="m 155.04,174.18 c 0,15.87 12.84,28.74 28.68,28.74 15.84,0 28.68,-12.87 28.68,-28.74 0,-15.87 -12.84,-28.74 -28.68,-28.74 -15.84,0 -28.68,12.87 -28.68,28.74 z" /><path
                       id="path352"
                       style="fill:none;stroke:#000000;stroke-width:1;stroke-linecap:butt;stroke-linejoin:miter;stroke-miterlimit:10;stroke-dasharray:none;stroke-opacity:1"
                       d="m 155.04,174.18 c 0,15.87 12.84,28.74 28.68,28.74 15.84,0 28.68,-12.87 28.68,-28.74 0,-15.87 -12.84,-28.74 -28.68,-28.74 -15.84,0 -28.68,12.87 -28.68,28.74 z" /><g
                       id="g360"><g
                         id="g358"
                         clip-path="url(#clipPath244)"><text
                           id="text356"
                           style="font-variant:normal;font-weight:normal;font-size:27.98399925px;font-family:CambriaMath;-inkscape-font-specification:CambriaMath;writing-mode:lr-tb;fill:#000000;fill-opacity:1;fill-rule:nonzero;stroke:none"
                           transform="matrix(1,0,0,-1,175.99,163.7)"><tspan
                             id="tspan354"
                             y="0"
                             x="0">1</tspan></text>
</g></g><path
                       id="path362"
                       style="fill:#ffffff;fill-opacity:0.50196001;fill-rule:evenodd;stroke:none"
                       d="m 123,236.28 c 0,15.84 12.84,28.68 28.68,28.68 15.84,0 28.68,-12.84 28.68,-28.68 0,-15.84 -12.84,-28.68 -28.68,-28.68 -15.84,0 -28.68,12.84 -28.68,28.68 z" /><path
                       id="path364"
                       style="fill:none;stroke:#000000;stroke-width:1;stroke-linecap:butt;stroke-linejoin:miter;stroke-miterlimit:10;stroke-dasharray:none;stroke-opacity:0.50196001"
                       d="m 123,236.28 c 0,15.84 12.84,28.68 28.68,28.68 15.84,0 28.68,-12.84 28.68,-28.68 0,-15.84 -12.84,-28.68 -28.68,-28.68 -15.84,0 -28.68,12.84 -28.68,28.68 z" /><path
                       id="path366"
                       style="fill:#000000;fill-opacity:0.50196001;fill-rule:nonzero;stroke:none"
                       d="m 146.04,240.61 v 2.6 c 1.06,0.5 2.05,0.87 2.96,1.12 0.92,0.24 1.81,0.37 2.67,0.37 1.03,0 1.93,-0.16 2.7,-0.48 0.77,-0.32 1.37,-0.78 1.77,-1.37 0.41,-0.6 0.62,-1.31 0.62,-2.14 0,-0.78 -0.16,-1.46 -0.47,-2.04 -0.3,-0.59 -0.74,-1.1 -1.3,-1.54 -0.56,-0.44 -1.28,-0.86 -2.18,-1.28 v -0.12 c 0.56,-0.1 1.09,-0.28 1.61,-0.52 0.51,-0.24 0.97,-0.55 1.37,-0.93 0.4,-0.38 0.72,-0.84 0.96,-1.37 0.24,-0.54 0.36,-1.14 0.36,-1.83 0,-1.05 -0.23,-1.99 -0.69,-2.81 -0.45,-0.82 -1.16,-1.46 -2.1,-1.94 -0.95,-0.47 -2.1,-0.71 -3.46,-0.71 -0.78,0 -1.63,0.09 -2.53,0.27 -0.91,0.18 -1.74,0.41 -2.49,0.7 v 2.9 h 1.64 c 0.31,-0.95 0.74,-1.64 1.26,-2.07 0.52,-0.42 1.23,-0.64 2.13,-0.64 1.19,0 2.08,0.33 2.69,0.97 0.6,0.65 0.91,1.6 0.91,2.87 0,1.33 -0.4,2.34 -1.21,3.04 -0.8,0.7 -1.97,1.06 -3.52,1.06 h -1.23 v 1.2 c 1.23,0.07 2.27,0.31 3.11,0.71 0.84,0.4 1.47,0.91 1.88,1.54 0.41,0.63 0.61,1.33 0.61,2.12 0,1.01 -0.27,1.78 -0.8,2.33 -0.54,0.55 -1.32,0.82 -2.35,0.82 -0.86,0 -1.55,-0.23 -2.09,-0.7 -0.54,-0.46 -0.93,-1.17 -1.19,-2.13 z" /><path
                       id="path368"
                       style="fill:#ffffff;fill-opacity:0.50196001;fill-rule:evenodd;stroke:none"
                       d="m 215.76,90.84 c 0,15.84 12.84,28.68 28.68,28.68 15.84,0 28.68,-12.84 28.68,-28.68 0,-15.84 -12.84,-28.68 -28.68,-28.68 -15.84,0 -28.68,12.84 -28.68,28.68 z" /><path
                       id="path370"
                       style="fill:none;stroke:#000000;stroke-width:1;stroke-linecap:butt;stroke-linejoin:miter;stroke-miterlimit:10;stroke-dasharray:none;stroke-opacity:0.50196001"
                       d="m 215.76,90.84 c 0,15.84 12.84,28.68 28.68,28.68 15.84,0 28.68,-12.84 28.68,-28.68 0,-15.84 -12.84,-28.68 -28.68,-28.68 -15.84,0 -28.68,12.84 -28.68,28.68 z" /><path
                       id="path372"
                       style="fill:#000000;fill-opacity:0.50196001;fill-rule:nonzero;stroke:none"
                       d="m 243.69,81.06 c 0.57,0.145 0.95,0.307 1.14,0.484 0.19,0.178 0.31,0.431 0.37,0.758 0.06,0.328 0.09,0.828 0.09,1.502 v 2.239 h -7.59 v 1.024 l 7.99,12.055 h 1.95 V 87.367 h 0.29 c 0.52,0 0.9,0.039 1.13,0.116 0.23,0.078 0.42,0.214 0.57,0.41 0.15,0.195 0.29,0.516 0.41,0.962 h 1.04 l -0.16,-2.812 h -3.28 v -2.239 c 0,-0.61 0.02,-1.056 0.06,-1.338 0.04,-0.282 0.11,-0.505 0.21,-0.669 0.09,-0.164 0.23,-0.3 0.42,-0.41 0.19,-0.109 0.49,-0.218 0.91,-0.327 v -0.669 h -5.55 z m -3.74,6.307 h 5.34 v 3.4 c 0,0.855 0.02,1.813 0.04,2.873 0.03,1.061 0.06,1.859 0.1,2.396 h -0.14 l -5.34,-8.478 z" /><path
                       id="path374"
                       style="fill:#ffffff;fill-opacity:0.50196001;fill-rule:evenodd;stroke:none"
                       d="m 255.12,210.3 c 0,15.87 12.87,28.74 28.74,28.74 15.87,0 28.74,-12.87 28.74,-28.74 0,-15.87 -12.87,-28.74 -28.74,-28.74 -15.87,0 -28.74,12.87 -28.74,28.74 z" /><path
                       id="path376"
                       style="fill:none;stroke:#000000;stroke-width:1;stroke-linecap:butt;stroke-linejoin:miter;stroke-miterlimit:10;stroke-dasharray:none;stroke-opacity:0.50196001"
                       d="m 255.12,210.3 c 0,15.87 12.87,28.74 28.74,28.74 15.87,0 28.74,-12.87 28.74,-28.74 0,-15.87 -12.87,-28.74 -28.74,-28.74 -15.87,0 -28.74,12.87 -28.74,28.74 z" /><path
                       id="path378"
                       style="fill:#000000;fill-opacity:0.50196001;fill-rule:nonzero;stroke:none"
                       d="m 278.11,200.64 v 2.89 h 1.65 c 0.27,-0.93 0.69,-1.61 1.24,-2.05 0.55,-0.43 1.26,-0.65 2.13,-0.65 1.21,0 2.13,0.36 2.75,1.09 0.62,0.73 0.93,1.81 0.93,3.26 0,0.97 -0.17,1.77 -0.5,2.4 -0.32,0.63 -0.76,1.09 -1.32,1.37 -0.56,0.28 -1.2,0.42 -1.94,0.42 -0.62,0 -1.15,-0.04 -1.6,-0.11 -0.44,-0.08 -0.92,-0.2 -1.43,-0.36 l -1.09,0.64 v 8.98 h 7.52 c 0.31,0 0.53,0.03 0.67,0.08 0.14,0.05 0.25,0.12 0.33,0.23 0.08,0.1 0.18,0.3 0.28,0.59 h 1.07 l -0.21,-3.17 h -7.85 v -5.99 c 0.48,0.2 0.99,0.35 1.55,0.45 0.55,0.1 1.11,0.15 1.66,0.15 1.09,0 2.05,-0.22 2.88,-0.66 0.84,-0.44 1.49,-1.07 1.94,-1.88 0.46,-0.82 0.68,-1.76 0.68,-2.84 0,-1.22 -0.25,-2.26 -0.76,-3.14 -0.51,-0.87 -1.25,-1.54 -2.21,-1.99 -0.97,-0.46 -2.11,-0.68 -3.43,-0.68 -1.57,0 -3.22,0.32 -4.94,0.97 z" /></g></g></g></g></g><g
             transform="translate(-312.332,-549.64)"
             id="g384"><text
               id="text388"
               style="font-variant:normal;font-weight:normal;font-size:8.96640015px;font-family:CMBX9;-inkscape-font-specification:CMBX9;writing-mode:lr-tb;fill:#000000;fill-opacity:1;fill-rule:nonzero;stroke:none"
               transform="matrix(1,0,0,-1,312.332,535.991)"><tspan
                 id="tspan386"
                 y="0"
                 x="0 4.1263371 10.020848">(b)</tspan></text>
<text
               id="text394"
               style="font-variant:normal;font-weight:normal;font-size:8.96640015px;font-family:CMR9;-inkscape-font-specification:CMR9;writing-mode:lr-tb;fill:#000000;fill-opacity:1;fill-rule:nonzero;stroke:none"
               transform="matrix(1,0,0,-1,330.204,535.991)"><tspan
                 id="tspan390"
                 y="0"
                 x="0 3.3265345 8.4463491 12.545787 17.405575 20.989447 23.549353 26.364803 31.228178 33.788086 38.907898 46.752602 51.360435 53.920341 59.717121 62.277027 67.14489 71.240738 75.848572 81.645348 87.01622 91.884079 97.003899 99.563805 103.66324 110.52612 114.10999 119.2298 121.78971 126.90953 131.00897 137.82971 141.41357 146.53339 151.14122 157.96196 161.80676 166.92657 171.53441 176.65422 181.26205 185.35252">Identifyingalllocalbodies(blue)thatchanged</tspan><tspan
                 id="tspan392"
                 y="10.959"
                 x="-17.872 -14.28813 -9.1683159 -5.0688772 -2.5089703 4.1620312 8.2578831 12.865716 17.985531 23.105345 27.204782 31.300634 34.884506 37.444412 42.052246 50.247536 53.882511 57.466381 62.074215 65.658089">theirconnectionstate</tspan></text>
<text
               id="text398"
               style="font-variant:normal;font-weight:normal;font-size:9.96259975px;font-family:CMBX10;-inkscape-font-specification:CMBX10;writing-mode:lr-tb;fill:#000000;fill-opacity:1;fill-rule:nonzero;stroke:none"
               transform="matrix(1,0,0,-1,238.851,492.455)"><tspan
                 id="tspan396"
                 y="0"
                 x="0 7.2089372 10.390992 16.119486 22.484592 27.202879 36.26984 41.998337 45.180389 50.908886">Figure4.6:</tspan></text>
<text
               id="text402"
               style="font-variant:normal;font-weight:normal;font-size:9.96259975px;font-family:CMR10;-inkscape-font-specification:CMR10;writing-mode:lr-tb;fill:#000000;fill-opacity:1;fill-rule:nonzero;stroke:none"
               transform="matrix(1,0,0,-1,298.039,492.455)"><tspan
                 id="tspan400"
                 y="0"
                 x="0 7.6104302 12.59173 20.893564 25.874865 28.642475 37.495243 43.03046 48.011761 51.914112 55.788567 58.556179 62.430634 65.198242 70.179543 75.714767 78.482376 84.017593">Domainpartitioning</tspan></text>
<text
               id="text446"
               style="font-variant:normal;font-weight:normal;font-size:10.90909958px;font-family:CMR10;-inkscape-font-specification:CMR10;writing-mode:lr-tb;fill:#000000;fill-opacity:1;fill-rule:nonzero;stroke:none"
               transform="matrix(1,0,0,-1,100.346,457.984)"><tspan
                 id="tspan404"
                 y="0"
                 x="0 6.2160053 11.670555 19.238197 23.551657 32.642208 38.09676 41.127308 47.452404 51.725498 57.180046 61.422596 64.453148 69.907692 77.515701 82.970253 89.609528 95.670624 101.12518 105.39827 109.64082 112.67136 117.51937 120.54992 128.70338 133.00594 136.03648 140.88448 149.03795 153.28049 162.0405 168.10159 173.55614 182.6467 188.10124 191.13179 200.48744 204.78999 207.82054 212.66853 217.51654 223.918 228.16055 234.22165 242.37511 247.22311 252.67766 261.76822 270.56424 276.61441 282.67551 285.70605 290.55405 296.00861 300.25116 303.28171 308.73627 318.10281 323.55737 326.58792 332.04245 337.49701 341.77011 344.80066 349.04321 355.10431 367.50031 372.95486 380.56287 386.62396 391.47195 395.77451 400.62253 404.8956 407.92615 414.29269 419.14072">Forsmallratiosofparticlesizetodomainsize,thecommunicationalgorithmasdescribed</tspan><tspan
                 id="tspan406"
                 y="17.933001"
                 x="0 5.4545498 11.821101 16.970196 22.422564 27.270569 35.013847 42.597855 48.052402 54.113499 57.144047 67.699692 74.066246 83.408798 87.711349 93.772438 102.86299 107.711 110.74155 115.58955 121.3561 130.0932 133.42702 138.88158 147.64922 157.60922 162.45723 167.91177 172.18488 176.45796 181.30597 186.15398 194.89107 200.95216 203.98271 208.28526 212.52782 216.8009 219.83145 225.89255 231.95364 236.1962 241.0442 251.61075 256.45877 261.9133 271.00388 277.06497 283.12607 287.36859 292.82315 297.0657 300.09625 305.55081 316.10645 321.561 329.40027 335.45047 340.905 345.1781 349.42065 352.4512 357.29919 360.32974 365.17776 368.82468 371.8443 377.29886 383.35995 388.20795 398.77451 404.8356 409.98471 417.86325 422.1658">above,wouldbesufcientforacorrectdistributedcomputationofparticle-ladenfows.</tspan><tspan
                 id="tspan408"
                 y="35.866001"
                 x="0 7.878552 13.939648 18.787653 23.060747 31.43239 36.88694 41.160034 49.531677 54.379681 59.834232 64.13678 68.984787 76.810974 82.87207 88.021164 95.594261 100.44227 105.90554 110.75355 115.02664 121.60265 129.4812 135.5423 140.3903 144.66339 153.03503 157.27759 163.33868 171.71033 177.76051 183.21506 187.48816 191.7307 194.76125 199.60925 202.6398 207.48781 215.314 224.40456 227.4351 232.88965 238.6562 246.42239 252.77803 261.14966 264.18021 269.63477 273.90787 279.36243 284.21042 292.00714 296.24969 302.31079 307.76535 317.3501 321.59262 327.65372 336.02536 342.08646 345.117 354.20758 359.05557 365.11667 369.41922 372.44977 377.90433 387.48904 392.9436 399.80106 408.76834 413.08179 419.13199">Therearecaseshowever,wheretheparticlesmightbelargerthanthedimensionofasub</tspan><tspan
                 id="tspan410"
                 y="53.798"
                 x="0 6.0610962 11.515646 20.606199 26.060749 29.091297 35.152393 41.477489 46.336403 50.63895 56.994595 61.842598 66.690598 69.721146 75.175697 78.206245 81.236794 90.212799 93.243347 99.795357 105.85645 111.311 115.5841 119.82664 122.85719 127.7052 130.73575 138.80194 144.25648 149.71103 155.16559 158.19614 163.65068 172.74124 177.58923 181.86234 187.31688 191.55943 196.40744 203.92818 209.38272 213.65581 221.722 226.02455 229.0551 237.84019 243.90129 246.93184 252.3864 256.62894 261.47696 267.53806 275.27042 283.14896 289.21005 294.05807 300.11917 306.45517 312.51627 317.97083 322.21335 330.88611 336.34064 342.88174 345.91229 351.6723 356.52029 361.97485 368.22357 374.59012 380.35013 386.40033 389.43088 394.28979 401.79962 410.59561 416.65671 420.95926">domain,especiallyifparticleagglomeratesaresimulated.Then,dataoflocalbodiesmust</tspan><tspan
                 id="tspan412"
                 y="71.731003"
                 x="0 6.0610962 11.515646 18.583652 24.038202 30.099298 33.129845 41.713127 48.068768 55.742229 60.590233 66.348053 70.890602 76.951698 82.40625 88.467346 93.921898 98.769897 107.65646 115.535 118.56555 122.80811 131.69466 137.75575 140.7863 145.05939 149.90739 154.7554 161.82341 167.88451 172.73251 175.76306 181.21761 186.97325 193.3398 198.79434 203.06744 206.09799 212.15909 220.42818 226.48927 231.94383 241.03438 246.48894 249.51949 255.58058 259.88312 265.90277 271.96387 278.02496 285.09296 290.54752 293.57806 297.88062 306.16061 314.03918 317.06973 321.31226 330.1879 333.21844 339.27954 345.34064 348.37119 352.64429 357.49231 362.3403 369.40829 375.46939 380.31741 383.34796 388.80252 394.55814 400.92468 406.37924 410.65234 413.68289 419.74399">notonlybeexchangedwithdirectneighboringdomains,butalsowithindirectneighboring</tspan><tspan
                 id="tspan414"
                 y="89.664001"
                 x="0 6.0610962 11.515646 20.606199 26.060749 29.091297 35.152393 39.454941 47.318222 55.196774 61.25787 69.705879 74.008423 80.069519 85.524071 91.890625 100.32772 105.78227 112.71609 116.95864 123.01974 131.46774 135.77029 141.83139 148.19794 154.25903 159.71359 168.80414 174.2587 177.28925 183.33943 187.65288 194.28343 198.52599 204.58708 210.04163 217.88419 222.15727 227.00528 231.30783 237.36893 240.39948 244.64203 252.53366 255.86749 260.14059 265.59512 278.28568 282.52823 288.58932 297.03735 303.09842 308.55298 312.82608 317.06863 320.09918 324.34174 327.37228 332.82681 338.88791 341.90756 347.96866 357.02319 362.47775 368.53885 374.59995 378.87305 384.32761 389.78214 394.32471 403.98578 411.86435 414.8949 419.13745">domains.Theshapeofthesubdomains,thatresultsfromthepartitioningapproachwith</tspan><tspan
                 id="tspan416"
                 y="107.597"
                 x="0 4.2425489 10.303645 18.871653 23.174202 29.235296 34.689846 39.537849 48.105858 54.166954 57.197502 60.22805 63.258598 69.319695 78.494247 86.676071 89.706619 92.737167 99.103722 103.95172 108.22482 116.18737 121.03537 127.09647 131.36957 136.82193 141.66994 148.44231 153.29031 158.74486 168.52596 173.98051 177.01106 181.3136 190.48816 195.63507 201.08961 205.36272 210.21509 218.34018 226.522 234.54456 238.84711 244.9082 250.0573 257.93585 267.71695 270.7475 280.52859 286.58969 292.04425 298.10535 302.37845 310.94644 316.401 319.43155 324.88608 330.94717 337.71954 342.02209 348.08319 354.44974 360.51083 365.96539 375.05594 380.5105 383.54105 389.60214 397.62469 406.71524 409.74579 415.20035 420.95599">thespacefllingHilbertcurve,canalsovary.Asshowninfgure4.1b,subdomainsmight</tspan><tspan
                 id="tspan418"
                 y="125.529"
                 x="0 5.4545498 11.515646 14.546194 23.0422 29.408752 36.984032 45.176765 51.237862 56.69241 60.965504 65.208054 68.238602 72.481148 75.511696 80.966248 89.765526 92.796074 97.644081 103.09645 107.94445 113.71319 118.56119 123.40919 126.43974 129.47029 136.51102 144.38957 147.42012 153.48122 158.32922 165.90886 169.84814 178.64742 182.88997 188.95107 193.79907 198.10162 205.68781 210.53581 215.99036 220.29291 225.14091 232.18164 237.02965 242.48203 247.33002 256.1293 260.43185 269.5224 274.97696 278.00751 283.77625 290.14279 295.89188 301.95297 304.98352 309.83154 316.87225 325.96283 328.99338 334.44791 340.20355 347.1843 352.63882 355.66937 359.94247 364.7905 370.24503 376.30612 384.80212 387.83267 393.58832 397.83087 402.67889 406.95197 411.25452 416.10254 420.95053">onlybe2partitionlevelcellswide.Inthesecasesevensmallbodiesmightalreadyintersect</tspan><tspan
                 id="tspan420"
                 y="143.46201"
                 x="0 7.878552 10.9091 15.151649 24.976385 28.006933 34.068027 40.129124 43.159672 47.432766 52.280769 57.128777 65.134964 71.19606 76.04406 79.074608 84.52916 90.284805 96.651352 102.1059 106.379 109.40955 115.47064 124.68883 130.74992 136.20448 145.29503 150.74957 153.78012 159.84122 164.14377 172.39978 184.34525 188.61833 194.07289 200.13399 206.19508 210.49763 218.50381 223.35182 228.80637 237.89693 246.68202 252.74312 258.80423 261.83478 266.68277 272.13733 276.37985 279.4104 284.86496 294.6897 300.14426 303.1748 308.62933 314.08389 318.35699 321.38754 325.6301 331.69119 344.54538 353.3414 359.4025 363.70502 371.71121 377.16577 382.01376 386.86179 392.31631 398.37741 404.13306 412.13925 415.47308 420.92761">withindirectneighboringdomains.Arobustcommunicationalgorithmmustaccountfor</tspan><tspan
                 id="tspan422"
                 y="161.395"
                 x="0 4.2425489 10.303645 15.151649 19.454199 27.454931 31.402935 37.160759 43.516399 51.528042 56.982594 63.469143 67.77169 72.619698 76.862244 82.92334 88.984436 93.286987 99.568443 107.447 113.50809 116.53864 121.08119 130.29501 134.2343 139.68884 142.71939 149.08594 153.93394 158.20705 163.66159 168.5096 175.93542 181.38997 184.42052 188.72307 197.33035 201.63289 205.87544 211.33 215.57254 220.42055 229.64528 232.67583 241.88966 247.95074 250.98129 258.43658 266.00967 271.46423 275.73734 281.49515 289.21661 297.09515 303.15625 311.15698 317.21808 320.24863 326.61191 331.4599 335.733 340.58102 346.64212 351.49011 359.49084 362.52139 371.73523 375.97775 382.03885 390.05051 396.1116 401.56616 410.65671 416.11127 419.14182">thesetypeofsetups,whichIglbergeralsostatedinhiswork.Thediferenceinthedomain</tspan><tspan
                 id="tspan424"
                 y="179.328"
                 x="0 6.0610962 11.515646 15.78874 20.03129 23.061838 27.304386 30.334934 35.789486 41.850582 44.881126 50.942223 60.618595 66.073143 72.134239 78.195335 82.46843 87.922981 93.377533 97.920082 108.203 112.44555 118.50665 123.9612 132.42557 138.48666 143.33467 151.82957 157.89067 162.19322 167.04123 177.32414 182.7787 188.8398 199.12271 203.36526 209.42636 218.49619 224.55728 230.01183 234.25438 243.93076 248.23329 252.47585 256.74893 262.81003 267.65805 271.9006 277.9617 282.23477 291.3046 296.75916 304.31479 308.55734 314.61844 323.68826 333.68863 341.87045 345.80975 358.21338 363.0614 368.82141 374.88251 383.95233 390.01343 395.16251 402.74652 407.59451 413.04688 417.8949 422.168">partitioningapproachthatherusedandthedatastructureoftheMAIAcodehowever,</tspan><tspan
                 id="tspan426"
                 y="197.25999"
                 x="0 9.0905533 14.545103 19.997471 24.845476 31.809845 37.870941 40.901489 47.85495 56.945503 61.793507 66.036057 72.097153 77.857155 86.56916 92.630257 98.691353 102.9939 109.055 112.08555 116.32809 121.1761 129.88811 133.22192 138.67648 145.60048 149.84303 155.90413 163.40305 169.46414 173.76669 181.27652 184.30707 193.01907 197.26161 203.32271 206.35326 213.30672 218.76128 221.79182 227.24637 232.70093 236.97401 240.00456 244.24712 250.30821 259.39877 266.94568 270.88495 276.94604 281.2486 285.49115 290.33914 295.7937 301.8548 307.74353 311.98608 318.04718 325.54608 330.3941 335.84863 341.90973 347.97083 352.81885 357.66684 361.90939 364.93994 370.3945 379.10651 384.56104 387.59158 393.04614 398.5007 402.7738 405.80435 410.04688 416.10797">makeshismethodunsuitedfortheuseinthisalgorithm.Instead,theconnectionalgorithm</tspan><tspan
                 id="tspan428"
                 y="215.19299"
                 x="0 3.3338211 8.7883711 17.250561 20.281107 26.342203 32.403301 35.433849 39.696033 44.554947 49.40295 57.823685 63.884781 68.732788 71.763336 77.21788 82.973526 89.340073 94.794624 103.25681 109.31791 114.77246 123.86301 129.31757 132.34811 138.40921 146.88994 154.76849 157.79904 160.82959 168.04922 174.11032 178.41287 187.44998 192.29797 197.75253 203.81363 209.87473 214.72272 219.57072 223.81328 226.84383 232.29837 238.35947 246.84021 251.08275 257.14386 262.59839 271.03003 276.48459 280.75769 289.7948 295.24933 298.27988 302.55298 307.40097 312.85553 318.91663 328.85263 334.91373 339.18683 344.03482 348.33737 353.18539 358.95193 367.37268 373.73923 378.58722 382.52432 390.10834 394.95633 399.80432 410.04361 414.28616 420.34726">forindirectneighbordomainswilluseconnectionsthatarealreadypresentbetweenthe</tspan><tspan
                 id="tspan430"
                 y="233.12601"
                 x="0 6.0610962 9.0916443 13.364738 18.212742 23.060747 30.76148 36.822575 41.670582 44.70113 50.155678 55.91132 62.27787 67.732422 72.005516 75.036064 81.09716 90.009895 96.070992 101.52554 110.61609 116.07064 119.10119 125.16228 129.46483 137.28448 144.40594 147.43649 152.89104 158.95213 163.22522 171.53142 176.98596 180.01651 188.92924 193.2318 199.29289 204.44199 212.32054 220.08127 224.01837 231.60237 240.51511 243.54565 249.60675 255.66785 258.6875 264.44531 267.47586 273.53696 279.59805 285.05261 291.54132 296.38934 302.14716 307.60172 316.69226 322.75336 325.78391 330.6319 338.39264 343.8472 350.63919 357.00574 362.76575 368.82684 371.85739 376.70541 384.46613 392.3447 395.37524 399.6178 409.13705 415.19815 418.2287 421.56253">directneighboringdomains.Figure4.7showstwoindividualexamplesofbodieswithdif-</tspan><tspan
                 id="tspan432"
                 y="251.05901"
                 x="0 3.3338211 8.1818247 12.45492 17.302923 23.058565 30.912025 36.973122 40.00367 45.458221 54.548771 59.396778 63.639324 68.487328 72.760422 80.684792 84.927345 90.988441 96.442993 104.29645 109.751 114.02409 122.48301 128.84956 134.30411 138.54666 148.21867 151.24922 156.70377 160.97687 166.43141 171.27942 179.16342 183.40598 189.46707 194.92162 204.59363 208.83618 214.89726 223.35619 231.23474 234.26529 240.32639 244.56892 254.24094 259.6955 266.65112 270.89368 276.94388 285.4137 288.44424 294.50534 300.56644 303.59698 309.3548 312.38535 318.43555 324.49664 329.95117 336.60355 340.9061 346.96719 353.32285 359.38394 364.8385 373.92905 379.38358 382.41412 388.47522 392.77777 400.65198 408.53052 414.59161 419.43964">ferentdiametersthatarebothlargerthanthewidthoftheindividualsubdomains.They</tspan><tspan
                 id="tspan434"
                 y="268.991"
                 x="0 5.4545498 9.7276449 18.328379 24.694929 30.149479 34.392029 44.194946 47.225494 52.9855 57.833504 63.288052 70.071335 76.437881 82.186981 88.24807 91.278618 96.126625 104.18191 109.63645 116.72301 122.7841 128.23865 137.32921 142.78375 145.8143 155.62813 164.82449 170.27905 176.34015 186.15398 192.52052 197.97507 202.21762 212.03145 218.09254 222.94055 227.78856 237.59148 241.83401 251.04131 257.40784 266.00858 270.8566 276.61441 281.15695 287.21805 292.67261 298.7337 304.18826 309.03625 318.8501 326.72864 329.75919 334.00174 343.81555 346.8461 352.8963 358.9574 361.98795 366.26105 371.10904 375.95703 383.95233 390.01343 394.86142 397.89197 403.34653 409.10217 415.46872 420.92325">arebothlocalbodiesofdomain0andbothneedtobeexchangedwithindirectneighbor</tspan><tspan
                 id="tspan436"
                 y="286.92401"
                 x="0 6.0610962 11.515646 20.606199 26.060749 29.091297 35.152393 39.454941 48.136402 56.012775 64.160782 68.403328 74.464424 83.217888 89.584435 94.432442 99.886993 102.91754 108.97864 115.03973 118.07028 124.13138 133.48047 138.93503 146.1743 150.41685 156.47795 165.23141 168.26196 173.71651 178.01906 186.16707 190.46962 194.71216 199.56017 209.52672 212.55727 222.52382 226.76637 232.82747 241.58093 246.73003 252.18239 257.0304 261.3035 266.75803 269.78857 276.72461 281.5726 287.02716 296.11771 304.9028 310.9639 317.02499 320.05554 324.90353 330.35809 334.60065 337.6312 343.08575 353.05231 358.50684 361.53738 366.99194 372.4465 376.71957 379.75012 383.99268 390.05377 403.0498 406.38361 410.65671 416.11127">domains.Atthebeginningofthelaststepintheoverallcommunicationalgorithmfrom</tspan><tspan
                 id="tspan438"
                 y="304.85699"
                 x="0 6.0610962 11.515646 17.576742 21.849836 29.98148 35.436031 38.466576 43.921127 50.31168 54.554226 60.615322 68.746964 75.113518 80.87352 86.934616 89.965164 94.813171 102.39936 107.8539 112.127 120.25864 125.7132 128.74374 133.01685 137.86484 143.3194 149.38049 158.42195 164.17978 170.24088 175.38997 183.26851 192.62416 198.0787 205.6649 208.69545 214.45544 219.30345 224.75801 231.07219 237.43874 243.18784 249.24893 252.27948 257.12747 264.72458 268.96713 277.70532 283.76642 289.22098 298.31152 303.76608 306.79663 316.14136 324.87955 330.33411 336.3952 345.75082 351.20538 358.79156 363.06467 367.91266 377.00323 382.45776 386.70032 394.83197 401.19852 406.95853 413.01962 416.05017 420.89816">fgure4.5,thebodiesarealreadyknownaslocalbodiestodomain0andasremotebodies</tspan><tspan
                 id="tspan440"
                 y="322.79001"
                 x="0 4.2425489 13.057102 19.118198 24.572748 33.6633 39.117851 42.148399 51.55859 57.013138 64.800056 73.133514 78.588066 87.678619 93.133171 96.163719 105.57391 114.38846 122.26701 125.29756 128.32811 134.70775 140.76884 145.91794 157.15649 161.69905 167.76015 172.60814 177.16161 186.26852 191.72307 194.75362 201.13326 204.1638 208.40636 211.4369 219.09946 223.37254 228.22055 237.31111 242.76566 247.00821 255.21622 261.57187 267.33185 273.39294 276.42349 281.27151 288.93405 292.26788 297.72244 305.3446 308.37515 314.1308 318.37335 323.22137 327.49445 331.797 336.64502 341.49301 345.73557 348.76611 354.22067 363.64175 371.52032 374.55087 378.7934 388.20358 393.65814 396.68869 403.07925 406.1098 411.86981 416.7178 422.17236">todomain1.Domain1willnowcheckallitsremotebodiesforintersectionwithalllocal</tspan><tspan
                 id="tspan442"
                 y="340.72198"
                 x="0 6.0610962 11.515646 15.78874 20.03129 23.061838 27.304386 30.334934 35.789486 45.777855 48.808403 53.65641 59.108776 63.956779 70.914604 76.9757 82.430252 85.4608 94.842621 99.690628 104.53864 107.56918 110.59973 118.82955 124.2841 131.5452 136.3932 141.85648 146.70448 150.97758 160.66267 166.72377 169.75432 174.02742 178.87543 183.72342 191.89325 197.95435 202.80235 205.8329 211.28745 217.04309 223.40964 228.8642 237.06456 243.12566 248.5802 257.67075 263.12531 266.15585 272.20605 280.96387 289.44897 295.51007 300.35806 309.13336 318.51517 324.88171 330.64172 336.70282 346.38794 349.41849 357.64828 360.98212 366.43668 372.49777 378.55887 388.54724 392.78979 398.85089 404.30542 412.47525 415.5058 421.56689">partitionlevelhalocellsofeverydirectneighbordomain.Onceabodyisfoundthatin-</tspan><tspan
                 id="tspan444"
                 y="415.96201"
                 x="207.144 212.59856">31</tspan></text>
</g></g></g></g></g></svg>