<?xml version="1.0" encoding="UTF-8" standalone="no"?>
<svg
   xmlns:dc="http://purl.org/dc/elements/1.1/"
   xmlns:cc="http://creativecommons.org/ns#"
   xmlns:rdf="http://www.w3.org/1999/02/22-rdf-syntax-ns#"
   xmlns:svg="http://www.w3.org/2000/svg"
   xmlns="http://www.w3.org/2000/svg"
   viewBox="0 0 248.76801 134.67999"
   height="134.67999"
   width="248.76801"
   xml:space="preserve"
   id="svg2"
   version="1.1"><metadata
     id="metadata8"><rdf:RDF><cc:Work
         rdf:about=""><dc:format>image/svg+xml</dc:format><dc:type
           rdf:resource="http://purl.org/dc/dcmitype/StillImage" /></cc:Work></rdf:RDF></metadata><defs
     id="defs6"><clipPath
       id="clipPath14"
       clipPathUnits="userSpaceOnUse"><path
         id="path12"
         d="M 219.57,595.82 H 406.146 V 696.83 H 219.57 Z" /></clipPath><clipPath
       id="clipPath34"
       clipPathUnits="userSpaceOnUse"><path
         id="path32"
         d="M 0,0 H 425.28 V 226.8 H 0 Z" /></clipPath><clipPath
       id="clipPath38"
       clipPathUnits="userSpaceOnUse"><path
         style="clip-rule:evenodd"
         id="path36"
         d="M 0,4.5776e-5 H 425.28 V 226.80005 H 0 Z" /></clipPath><clipPath
       id="clipPath42"
       clipPathUnits="userSpaceOnUse"><path
         style="clip-rule:evenodd"
         id="path40"
         d="M 6.337e-6,0 H 425.28001 V 226.8 H 6.337e-6 Z" /></clipPath><clipPath
       id="clipPath46"
       clipPathUnits="userSpaceOnUse"><path
         style="clip-rule:evenodd"
         id="path44"
         d="M 6.337e-6,0 H 425.28001 V 226.8 H 6.337e-6 Z" /></clipPath><clipPath
       id="clipPath50"
       clipPathUnits="userSpaceOnUse"><path
         style="clip-rule:evenodd"
         id="path48"
         d="M 6.337e-6,0 H 425.28001 V 226.8 H 6.337e-6 Z" /></clipPath><clipPath
       id="clipPath54"
       clipPathUnits="userSpaceOnUse"><path
         style="clip-rule:evenodd"
         id="path52"
         d="M 6.337e-6,0 H 425.28001 V 226.8 H 6.337e-6 Z" /></clipPath></defs><g
     clip-path="url(#clipPath14)"
     transform="matrix(1.3333333,0,0,-1.3333333,-292.76,929.10667)"
     id="g10"><text
       id="text18"
       style="font-variant:normal;font-weight:normal;font-size:10.90909958px;font-family:CMBX10;-inkscape-font-specification:CMBX10;writing-mode:lr-tb;fill:#000000;fill-opacity:1;fill-rule:nonzero;stroke:none"
       transform="matrix(1,0,0,-1,280.809,732.071)"><tspan
         id="tspan16"
         y="0"
         x="0 6.2727327 9.7570992 20.208017 28.434568 34.532757 39.699306 45.797493 49.28186 52.777134 58.527321 66.189873 73.159698 76.644066 86.749161 93.718987 97.203354 103.30154 108.18009 111.66446 117.93719 129.08521 135.35793 143.38048 151.81758 158.09032 161.57468 168.54451 178.99869 184.74889 189.62743 194.79398 198.27835 208.03218 216.95691 223.57874 230.54855 234.03293 239.78311">4.2ParallelSimulationofVolumetricBodies</tspan></text>
<g
       transform="translate(100.346,727.757)"
       id="g20"><path
         id="path22"
         style="fill:none;stroke:#000000;stroke-width:0.498;stroke-linecap:butt;stroke-linejoin:miter;stroke-miterlimit:10;stroke-dasharray:none;stroke-opacity:1"
         d="M 0,0 H 425.197" /></g><g
       transform="translate(213.732,593.839)"
       id="g24"><g
         transform="scale(0.46658)"
         id="g26"><g
           id="g28"><g
             id="g30" /><g
             id="g112"><g
               id="g110"
               clip-path="url(#clipPath34)"><g
                 id="g60"><g
                   id="g58"
                   clip-path="url(#clipPath38)"><path
                     id="path56"
                     style="fill:#ffffff;fill-opacity:1;fill-rule:evenodd;stroke:none"
                     d="M 0,1.5259e-5 H 425.28 V 226.80002 H 0 Z" /></g></g><path
                 id="path62"
                 style="fill:#bfbfbf;fill-opacity:1;fill-rule:evenodd;stroke:none"
                 d="M 22.68,18.48 H 212.64 V 208.44 H 22.68 Z" /><path
                 id="path64"
                 style="fill:none;stroke:#000000;stroke-width:1;stroke-linecap:butt;stroke-linejoin:miter;stroke-miterlimit:10;stroke-dasharray:none;stroke-opacity:1"
                 d="M 22.68,18.48 H 212.64 V 208.44 H 22.68 Z" /><g
                 id="g72"><g
                   id="g70"
                   clip-path="url(#clipPath42)"><text
                     id="text68"
                     style="font-variant:normal;font-weight:normal;font-size:20.06399918px;font-family:CambriaMath;-inkscape-font-specification:CambriaMath;writing-mode:lr-tb;fill:#000000;fill-opacity:1;fill-rule:nonzero;stroke:none"
                     transform="matrix(1,0,0,-1,29.904,26.52)"><tspan
                       id="tspan66"
                       y="0"
                       x="0 13.202112 23.856096 40.549343 50.400768 55.978561 67.073952 71.267326">Domain 0</tspan></text>
</g></g><path
                 id="path74"
                 style="fill:#f2f2f2;fill-opacity:1;fill-rule:evenodd;stroke:none"
                 d="M 212.64,18.48 H 402.6 V 208.44 H 212.64 Z" /><path
                 id="path76"
                 style="fill:none;stroke:#000000;stroke-width:1;stroke-linecap:butt;stroke-linejoin:miter;stroke-miterlimit:10;stroke-dasharray:none;stroke-opacity:1"
                 d="M 212.64,18.48 H 402.6 V 208.44 H 212.64 Z" /><g
                 id="g84"><g
                   id="g82"
                   clip-path="url(#clipPath46)"><text
                     id="text80"
                     style="font-variant:normal;font-weight:normal;font-size:20.06399918px;font-family:CambriaMath;-inkscape-font-specification:CambriaMath;writing-mode:lr-tb;fill:#000000;fill-opacity:1;fill-rule:nonzero;stroke:none"
                     transform="matrix(1,0,0,-1,219.89,26.52)"><tspan
                       id="tspan78"
                       y="0"
                       x="0 13.202112 23.856096 40.549343 50.380703 55.958496 67.053886 71.247261">Domain 1</tspan></text>
</g></g><path
                 id="path86"
                 style="fill:#ffffff;fill-opacity:1;fill-rule:evenodd;stroke:none"
                 d="m 170.28,78.42 c 0,14.68 11.9,26.58 26.58,26.58 14.68,0 26.58,-11.9 26.58,-26.58 0,-14.68 -11.9,-26.58 -26.58,-26.58 -14.68,0 -26.58,11.9 -26.58,26.58 z" /><path
                 id="path88"
                 style="fill:none;stroke:#000000;stroke-width:1;stroke-linecap:butt;stroke-linejoin:miter;stroke-miterlimit:10;stroke-dasharray:none;stroke-opacity:1"
                 d="m 170.28,78.42 c 0,14.68 11.9,26.58 26.58,26.58 14.68,0 26.58,-11.9 26.58,-26.58 0,-14.68 -11.9,-26.58 -26.58,-26.58 -14.68,0 -26.58,11.9 -26.58,26.58 z" /><g
                 id="g96"><g
                   id="g94"
                   clip-path="url(#clipPath50)"><text
                     id="text92"
                     style="font-variant:normal;font-weight:normal;font-size:20.04000092px;font-family:CambriaMath;-inkscape-font-specification:CambriaMath;writing-mode:lr-tb;fill:#000000;fill-opacity:1;fill-rule:nonzero;stroke:none"
                     transform="matrix(1,0,0,-1,191.4,70.92)"><tspan
                       id="tspan90"
                       y="0"
                       x="0">0</tspan></text>
</g></g><path
                 id="path98"
                 style="fill:#ffffff;fill-opacity:1;fill-rule:evenodd;stroke:none"
                 d="m 196.92,149.64 c 0,14.71 11.9,26.64 26.58,26.64 14.68,0 26.58,-11.93 26.58,-26.64 0,-14.71 -11.9,-26.64 -26.58,-26.64 -14.68,0 -26.58,11.93 -26.58,26.64 z" /><path
                 id="path100"
                 style="fill:none;stroke:#000000;stroke-width:1;stroke-linecap:butt;stroke-linejoin:miter;stroke-miterlimit:10;stroke-dasharray:none;stroke-opacity:1"
                 d="m 196.92,149.64 c 0,14.71 11.9,26.64 26.58,26.64 14.68,0 26.58,-11.93 26.58,-26.64 0,-14.71 -11.9,-26.64 -26.58,-26.64 -14.68,0 -26.58,11.93 -26.58,26.64 z" /><g
                 id="g108"><g
                   id="g106"
                   clip-path="url(#clipPath54)"><text
                     id="text104"
                     style="font-variant:normal;font-weight:normal;font-size:20.06399918px;font-family:CambriaMath;-inkscape-font-specification:CambriaMath;writing-mode:lr-tb;fill:#000000;fill-opacity:1;fill-rule:nonzero;stroke:none"
                     transform="matrix(1,0,0,-1,217.99,142.15)"><tspan
                       id="tspan102"
                       y="0"
                       x="0">1</tspan></text>
</g></g></g></g></g></g><g
         transform="translate(-213.732,-593.839)"
         id="g114"><text
           id="text118"
           style="font-variant:normal;font-weight:normal;font-size:9.96259975px;font-family:CMBX10;-inkscape-font-specification:CMBX10;writing-mode:lr-tb;fill:#000000;fill-opacity:1;fill-rule:nonzero;stroke:none"
           transform="matrix(1,0,0,-1,134.133,575.507)"><tspan
             id="tspan116"
             y="0"
             x="0 7.2089372 10.390992 16.119486 22.484592 27.202879 36.26984 41.998337 45.180389 50.908886">Figure4.2:</tspan></text>
<text
           id="text122"
           style="font-variant:normal;font-weight:normal;font-size:9.96259975px;font-family:CMR10;-inkscape-font-specification:CMR10;writing-mode:lr-tb;fill:#000000;fill-opacity:1;fill-rule:nonzero;stroke:none"
           transform="matrix(1,0,0,-1,193.32,575.507)"><tspan
             id="tspan120"
             y="0"
             x="0 7.1949897 14.111027 22.419834 27.955055 32.382435 35.150043 40.131344 45.387611 51.201786 56.183086 60.075474 62.843086 68.378304 76.687111 82.222336 87.203636 95.50547 100.48677 103.25438 108.7896 112.71885 118.80401 123.23138 128.21268 132.36111 141.22385 148.41882 151.18645 155.0609 163.91367 168.89496 174.43018 182.17511 184.94272 190.20297 194.63036 199.61165 205.69681 210.6781 216.21333 225.07605 230.05736 235.59258 243.33749 247.23985 251.66724 259.96906 264.95038 268.82483 276.56973 282.38391 287.64417 293.17938">Twoneighboringdomains,eachwithonelocalandoneremotebody</tspan></text>
<text
           id="text146"
           style="font-variant:normal;font-weight:normal;font-size:10.90909958px;font-family:CMR10;-inkscape-font-specification:CMR10;writing-mode:lr-tb;fill:#000000;fill-opacity:1;fill-rule:nonzero;stroke:none"
           transform="matrix(1,0,0,-1,100.346,541.037)"><tspan
             id="tspan124"
             y="0"
             x="0 3.0305481 9.0916443 13.939648 19.69529 23.937838 26.968386 33.029484 37.877487 43.332035 47.574585 50.605133 56.059685 66.353508 72.109154 78.17025 86.955345 93.321899 98.169899 106.67573 114.55428 117.58482 120.61537 127.86774 134.2343 143.31503 149.37613 153.67868 158.52667 164.58777 171.99287 179.87143 185.93253 188.96307 193.51653 203.79944 206.82999 215.36526 221.73183 227.18637 231.48892 235.79147 238.82202 244.88312 247.91367 252.76166 260.16675 264.4693 267.49985 273.56094 278.40897 287.48969 291.73224 297.79333 306.87408 313.69226 325.64099 329.95447 335.409 338.43954 343.89194 348.73993 357.23483 363.29593 368.75049 373.02359 377.26614 380.29669 384.53922 387.56976 393.02432 399.08542 402.11597 408.17706 417.86435 420.8949">identifcationnumberwillbeused,whichispossible,sincetheLBsolverpartitioningis</tspan><tspan
             id="tspan126"
             y="17.933001"
             x="0 5.4545498 11.515646 16.970196 23.031292 27.273842 32.121845 38.182941 46.373493 54.252045 60.313141 68.892059 71.922607 77.983704 82.831703 88.598259 92.840805 95.871353 101.92154 106.78045 114.78446 117.81501 125.85938 131.31393 135.61647 139.91902 142.94957 148.40413 154.46523 159.31322 169.11613 173.35869 182.55505 191.74052 198.10707 203.86708 209.92818 214.76964 221.56383 229.45328 235.50346 240.36238 250.15439 254.39694 260.45804 269.04785 275.4144 281.16351 287.22461 290.25516 295.10315 303.14752 308.60208 312.87518 321.465 326.91956 331.76755 337.82864 342.67664 346.94974 352.4043 356.64685 361.49484 371.29776 374.32831 384.12033 388.96832 394.42288 398.97632 408.76834 413.08179 419.13199">adopted.Theidentiferisassignedtoabody,whenthebodiesaregeneratedineachsub</tspan><tspan
             id="tspan128"
             y="35.866001"
             x="0 6.0610962 11.515646 20.606199 26.060749 29.091297 35.152393 44.128399 48.067677 56.302956 61.757507 64.788055 69.090607 78.54879 84.003342 87.03389 90.064438 95.213531 103.09209 111.39828 114.73209 120.18665 128.46338 132.70593 138.76703 147.61867 153.07321 157.37576 161.67831 164.70886 170.16342 176.22452 185.31506 190.16307 195.9187 204.1649 208.40744 217.85472 224.22128 233.07292 237.92093 243.67874 248.52675 253.37476 259.43585 263.67841 268.5264 278.59116 286.4697 289.50024 293.7428 299.80389 305.25842 311.31952 319.55481 323.79736 329.85846 338.71011 344.77121 349.6192 354.46719 364.53195 369.98648 377.32394 382.7785 388.82867 394.88977 397.92032 402.16287 405.19342 410.64798 416.70908 422.16364">domain.Italsoallowsfortheassignmenttobeexecutedwithouttheneedofadditional</tspan><tspan
             id="tspan130"
             y="53.799"
             x="0 4.8480039 10.605827 15.148376 21.209473 26.664022 32.725117 38.179668 46.67131 52.125862 59.092411 65.153511 70.608055 74.850609 80.305161">exchangeofdata.</tspan><tspan
             id="tspan132"
             y="71.731003"
             x="0 7.878552 13.939648 22.082201 25.112749 30.567299 34.869846 42.396034 45.426582 54.517136 60.883686 66.338234 70.611328 74.853882 80.308434 86.064072 93.601166 97.87426 102.72227 108.48009 114.54118 117.57173 121.84483 126.69283 135.78339 140.63139 146.38702 153.92413 157.25795 162.71249 170.26923 176.33032 181.78488 186.05797 191.51253 194.54308 197.57362 202.42163 208.74672 213.04927 216.07982 224.86491 230.92601 233.95656 239.4111 243.65366 246.6842 252.13875 258.19986 265.79694 268.82748 278.17224 283.62677 288.47479 294.53589 299.38388 303.65698 309.11154 312.14209 318.53262 321.56317 329.16028 337.90936 342.21191 348.27301 351.30356 355.54611 361.00067 367.06177 370.09232 378.22394 383.07196 388.52652 397.61707 406.41306 412.47415 418.53525 421.5658">Thelastimportantrequirementforparallelsimulationsingeneral,isasuitablecommuni-</tspan><tspan
             id="tspan134"
             y="89.664001"
             x="0 4.8480039 10.302554 14.545103 17.575651 23.030201 32.887665 39.254215 44.102219 48.039314 55.612411 60.460415 65.308418 75.165878 78.196426 84.257523 90.318619 93.349167 99.106995 102.13754 108.19864 114.25974 119.71428 126.5412 132.60229 136.87538 142.63539 147.4834 152.33141 156.63394 160.93649 163.96704 170.02814 179.27905 185.34015 191.08925 197.15034 201.99835 206.3009 214.666 225.87837 228.90892 233.15147 243.00893 248.46349 258.32095 261.3515 267.4126 272.26059 276.53369 281.38168 286.83624 291.13879 294.16934 300.23044 309.48135 315.237 321.2981 330.08319 336.44974 341.29773 349.36719 354.82175 361.95193 368.01303 373.46759 382.55814 388.0127 391.04324 397.09341 405.20325 409.43488 415.49597 420.95053">cationbetweenindividualprocessingnodes.Withanincreasingnumberofdomainsthat</tspan><tspan
             id="tspan136"
             y="107.597"
             x="0 6.0610962 10.9091 15.757104 25.505476 29.748024 38.878941 43.737854 49.484768 54.038227 60.099323 65.553871 71.614967 77.069519 85.593887 91.654984 97.109535 101.35208 110.49391 118.37246 121.40301 125.64556 135.39394 140.84848 150.58594 156.0405 162.10159 167.55614 171.79869 177.85979 182.70779 186.98088 193.70961 197.95216 204.01326 212.54854 217.39655 222.85109 231.94165 240.72675 246.78784 252.84894 255.87949 260.72748 266.18204 270.42459 273.45514 278.9097 288.65805 293.80716 299.25952 304.10751 308.38062 314.44171 319.28973 324.74426 334.49265 339.9472 342.97775 347.2803 356.42212 359.45267 365.51376 370.36176 374.63486 379.48285 384.93741 389.23996 394.08795 398.3905 406.40652 414.28506 420.34616">needtoexchangedatawithonanother,thecommunicationoverheadalsoincreases.The</tspan><tspan
             id="tspan138"
             y="125.53"
             x="0 4.8480039 10.302554 19.393106 25.454203 31.515299 35.757847 41.212399 45.454948 48.485497 53.940044 60.001141 65.455688 68.486237 71.516785 80.54734 89.637894 95.092445 99.394989 106.91027 111.75828 117.5161 123.88265 128.73065 134.79175 139.0943 142.12485 147.57721 155.69795 159.63504 165.39287 171.75941 179.88016 185.3347 191.94125 196.78926 202.2438 211.33435 220.11946 226.18056 232.24165 237.08965 242.5442 246.78676 249.81731 255.27185 264.60568 267.63623 275.21149 280.66605 283.69659 286.72714 290.36316 294.60571 300.06024 303.69626 309.15082 312.18137 318.48462 323.33264 328.78717 337.87775 346.67374 352.73483 358.79593 361.82648 366.6745 372.12903 376.37158 379.40213 384.85669 390.91779 397.2865 405.16507 411.22617 416.07416 420.34726">computationallymostexpensivetypeofcommuncationisall-to-allcommunication,where</tspan><tspan
             id="tspan140"
             y="143.46201"
             x="0 5.4545498 8.4850979 14.155648 20.216743 25.671293 34.761848 40.216396 43.246944 49.308041 56.250591 64.129143 67.159691 70.190239 75.860794 80.708794 86.466614 91.009171 97.070259 102.52481 108.58591 114.04046 121.52847 125.77101 131.83211 136.68011 139.71066 146.62376 152.68486 158.1394 162.38196 170.4765 178.35506 181.3856 185.62816 194.32925 199.7838 202.81435 208.48489 213.93945 218.18201 224.2431 229.09109 236.0042 242.06529 247.51984 256.61038 262.06494 265.09549 271.15659 275.45914 283.00604 286.94534 293.82788 298.13043 304.19153 309.64609 315.70718 318.73773 327.42792 331.67047 337.73157 342.57956 346.85266 351.71158 355.03448 360.48901 364.76212 372.25012 378.61667 386.10468 391.25378 396.71707 402.1716 405.20215 411.26324 416.11127 422.17236">alldomainswillexchangetheirdatawithallotherdomains.Itshouldthereforebeavoided,</tspan><tspan
             id="tspan142"
             y="161.395"
             x="0 5.4545498 13.177102 18.631653 21.662199 28.17275 33.020756 38.475304 42.777855 47.020401 51.322952 59.153503 67.032059 73.093155 81.421158 86.269165 91.723709 100.81426 109.59937 115.66046 121.72156 124.75211 129.60011 135.05466 139.29721 142.32776 147.7823 157.32341 162.77795 165.8085 171.26305 176.71761 180.99069 184.02124 188.26379 194.32489 206.89545 212.95654 217.25909 222.1071 231.64819 234.67874 244.21983 248.46239 254.52348 257.55405 265.33658 269.57913 275.64023 280.48822 284.79077 287.82132 295.60388 303.48242 306.51297 309.54352 316.05408 321.50864 327.56973 330.60028 339.8381 345.8992 350.20175 358.52975 364.8963 370.35086 373.38141 379.13705 383.37958 387.01559 391.25815 396.71271 400.34869 406.71524 412.1698 415.20035 420.95599">atallcosts.Thecommunicationalgorithmusedinthisthesiswillonlyusepoint-to-point</tspan><tspan
             id="tspan144"
             y="179.328"
             x="0 4.8480039 10.302554 19.393106 28.178205 34.2393 40.300396 43.330944 48.178947 53.633499 57.876049 60.906597 66.361145 72.422241 79.096428 86.974983 90.005531 94.248077 103.9419 113.02918 116.05973 119.09028 128.18083 131.21138 135.45393 140.30194 149.99576 155.45032 164.54086 169.99541 176.0565 181.82306 189.69833 195.15289 202.11945 208.18054 213.02853 216.05908 221.51364 227.26929 233.63583 239.09038 243.36348 246.39403 252.45512 261.54239 267.60349 273.05804 282.14859 287.60315 290.6337 296.69479 300.99734 307.67154 313.12607 321.06137 327.12247 331.39554 336.24356 340.54611 345.3941 351.14975 355.3923 360.2403 369.94504 372.97559 382.6694 388.12396 391.15451 396.60907">communication,withalimitedamountofneighboringdomains,aspresentedin4.4.</tspan></text>
<text
           id="text150"
           style="font-variant:normal;font-weight:normal;font-size:14.34619999px;font-family:CMBX12;-inkscape-font-specification:CMBX12;writing-mode:lr-tb;fill:#000000;fill-opacity:1;fill-rule:nonzero;stroke:none"
           transform="matrix(1,0,0,-1,100.346,327.337)"><tspan
             id="tspan148"
             y="0"
             x="0 8.0697374 12.552925 36.762138 47.342461 55.188396 61.780476 69.626411 74.109596 78.592789 85.956696 95.819702 104.78608 109.26926 122.25975 131.22612 135.70932 143.55525 149.83171 154.3149 162.38464 176.73083 184.80058 195.12553 205.9641 214.03383 218.51701 227.48338 240.93295 248.29686 254.57332 261.16541 265.64859 278.20151 289.6756 298.19006 307.15643 311.63965 319.00354">4.2ParallelSimulationofVolumetricBodies</tspan></text>
<text
           id="text176"
           style="font-variant:normal;font-weight:normal;font-size:10.90909958px;font-family:CMR10;-inkscape-font-specification:CMR10;writing-mode:lr-tb;fill:#000000;fill-opacity:1;fill-rule:nonzero;stroke:none"
           transform="matrix(1,0,0,-1,100.346,298.601)"><tspan
             id="tspan152"
             y="0"
             x="0 8.1818247 16.935287 22.389837 28.450933 34.817482 40.272034 44.574581 49.422588 59.934597 64.177147 74.093513 80.460068 85.914619 88.945168 94.700806 98.943352 102.57936 108.64046 114.095 118.3681 122.61065 125.6412 130.4892 133.51974 138.36775 142.6703 150.35904 154.66159 160.72269 166.17723 170.41978 173.45033 178.90488 181.93542 184.96597 195.17471 199.4478 204.29581 208.59836 214.0529 217.08345 222.53583 227.38382 237.90674 243.96783 249.42239 253.69548 257.92712 260.95767 265.81659 268.83621 273.69513 277.99768 285.68643 291.14096 299.86499 302.89554 313.40753 318.86209 323.10464 329.16574 334.01373 342.73773 350.32175 355.77631 360.04938 366.11047 374.86395 380.31631 385.77087 388.80142 394.86252 403.95306 408.80106 413.04361 417.31671 420.34726">Asopposedtopoint-particles,spatiallyresolvedparticles,orinotherwordsvolumetric</tspan><tspan
             id="tspan154"
             y="17.933001"
             x="0 6.3665509 12.126555 18.187651 21.207291 26.066204 30.368753 37.762939 43.522945 48.370949 53.218952 59.280048 65.03569 75.026245 84.702614 90.76371 96.824806 99.855354 104.09791 113.16773 118.62228 127.72374 133.1783 139.22849 144.99503 153.4594 158.91396 166.46959 170.77214 176.83324 182.28778 187.13579 191.9838 201.63617 209.51472 215.57582 218.60637 227.13074 230.16129 235.00929 240.46384 246.52493 255.06021 259.30276 268.97913 273.22168 279.28278 288.36353 294.4137 298.6868 304.14136 310.20245 313.233 318.08099 327.17154 334.57663 338.81918 344.88028 350.33484 358.81012 365.16577 370.92575 376.98685 380.0174 384.86542 393.4007 398.24869 403.70325 413.98618 420.35272">bodies,occupyafniteamountofspace.Thisleadstotheproblem,thatbodiescanbe</tspan><tspan
             id="tspan156"
             y="35.865002"
             x="0 6.0610962 10.33419 15.182195 19.484743 24.332748 30.088388 37.941849 40.972397 50.644405 59.429504 65.490601 68.521149 72.763695 75.794243 81.855339 84.885887 93.333893 97.647354 103.69754 113.36955 119.43064 124.88519 133.97575 139.4303 142.46085 148.52194 156.43541 161.88995 169.74341 173.98596 180.03615 188.49507 192.79762 198.25217 207.34271 215.80164 220.04419 223.07474 232.16528 237.01329 244.88748 248.82675 258.48785 263.94241 268.21548 274.27658 279.1246 287.00861 291.25116 300.31662 306.37772 312.43881 315.46936 321.22717 327.28827 332.13629 335.16684 344.52466 349.97919 354.28174 358.58429 361.61484 367.0694 376.74139 381.58942 387.04395 391.58652 401.25851 407.62506 413.37418 419.43527">presentinmultiplesubdomainsatthesametime.Inordertouniquelyassigneachbody</tspan><tspan
             id="tspan158"
             y="53.798"
             x="0 4.2425489 12.577102 15.60765 21.668745 27.729841 30.760389 36.518211 39.548759 45.609856 51.670952 57.125504 63.025143 67.32769 73.388786 79.755341 85.816437 91.270988 100.36154 105.81609 108.84663 114.90773 119.21028 125.27356 129.21283 134.66739 137.69794 144.06448 148.91249 153.18558 158.64014 163.48813 170.63033 174.94379 180.99397 186.44852 191.90308 196.76198 201.06453 205.30708 212.47873 216.72127 222.78236 230.51038 236.57147 240.87402 248.60202 254.05658 260.27039 264.51294 270.57404 278.30206 287.39261 292.84717 297.14969 304.33224 309.18027 314.02826 319.78391 324.02646 328.87445 333.14755 340.77084 351.98322 358.04431 363.49884 367.74139 372.58942 378.04178 382.88977 390.04288 396.10397 401.5585 410.64908 416.10361 419.13416">toindividualsubdomains,Iglbergersuggeststheuseofthemasscenter.Whateverdomain</tspan><tspan
             id="tspan160"
             y="71.731003"
             x="0 4.2425489 10.303645 13.334193 21.051291 25.899294 30.747299 36.502941 40.745487 45.593494 53.292046 56.311684 64.039688 67.070236 72.819336 77.667336 83.121887 87.364433 92.223351 101.699 104.72955 110.79063 117.27937 125.15792 128.18848 131.21902 137.66411 143.7252 148.87431 154.32668 162.58923 166.83177 172.89287 181.15543 187.52197 193.28198 199.34308 208.51544 213.97 221.68709 224.71764 228.96019 231.99074 239.70784 242.73839 248.49838 253.34639 258.80093 265.24603 271.61258 277.37259 283.43369 292.60605 298.06061 304.1217 313.59735 316.6279 324.345 328.58755 334.64865 342.91119 348.36575 354.42685 357.4574 366.62976 372.69086 378.14542 387.23596 392.69052 395.72107 405.19672 409.43924 415.50034 420.9549">thiscenterislocatedin,willhavethebodyasit’slocalbodyandistheonlydomainthat</tspan><tspan
             id="tspan162"
             y="89.664001"
             x="0 7.878552 10.9091 13.939648 21.573835 27.634932 33.990574 40.05167 45.506218 49.748768 59.200413 63.442963 69.504059 78.955704 84.713524 87.744072 93.805168 98.653175 107.74373 113.19827 117.44083 120.47137 129.92302 135.98412 141.43866 145.68121 155.7394 159.07323 164.52777 173.3936 177.63615 183.69725 193.1489 199.51544 205.27544 211.33653 221.68709 224.71764 235.38239 239.62492 245.68602 255.13766 263.16785 275.49841 279.80096 285.25552 288.28607 293.73843 298.58643 302.85953 313.63553 321.5141 327.5752 330.60574 339.50101 344.95557 351.01666 357.07776 361.35086 366.80539 372.25995 376.81342 387.46722 392.31525 398.37634 402.67889 408.73999 413.01306 417.86108 422.16364">willupdatethekinematicdataforthebodyintheRBsolver.Thisapproachensures,</tspan><tspan
             id="tspan164"
             y="107.596"
             x="0 4.2425489 10.303645 15.758195 23.371656 29.432753 38.269123 42.206219 49.779316 58.615685 64.070236 71.714241 80.804794 86.259346 90.53244 98.76226 104.82336 110.27791 119.36846 124.82301 127.85356 133.91466 141.58812 146.13066 152.19176 157.64632 163.70741 169.16196 177.39178 181.63434 187.69543 195.91435 201.97545 207.42999 211.67255 220.498 225.95255 232.6682 238.12274 244.18384 252.40276 258.76932 264.5293 270.59039 279.71915 285.17371 292.79807 297.04062 303.10172 311.32062 315.62317 321.07773 330.16827 338.3981 342.64066 345.6712 354.76175 359.60974 366.06577 373.94431 380.0054 383.03595 387.57849 397.0105 404.59451 410.04907 416.11017 419.14072">thatnotwoormoredomainschangethedataofonebodyatthesametime,whichwould</tspan><tspan
             id="tspan166"
             y="125.529"
             x="0 4.2730947 9.1210985 13.423648 19.484743 22.515291 31.557844 34.588394 45.438583 49.741131 52.771679 61.556778 67.617874 70.648422 76.102974 80.34552 83.376068 88.83062 99.691719 104.53973 108.81282 113.08591 118.54046 122.81356 131.9052 134.93575 140.3903 143.42085 154.77504 158.71431 169.57541 174.42342 179.87798 184.18051 193.82852 204.07217 210.43872 216.19873 222.25983 232.80673 238.86783 244.32239 248.59547 252.83803 255.86858 261.32312 264.35367 267.38422 277.94205 280.9726 286.72824 290.97079 295.81879 300.09189 304.39444 309.24243 314.09045 318.33298 327.43555 337.6792 343.7403 349.19482 358.2854 363.73993 366.77048 372.83157 380.94577 388.82431 394.88541 397.91595 400.9465 410.59451 413.62506 417.86761 420.89816">resultinsimulationerrors[9].Incaseabodypartiallyintersectsadomain,whileit’s</tspan><tspan
             id="tspan168"
             y="143.46201"
             x="0 4.8480039 9.6960077 15.45165 19.694199 24.542202 32.044392 37.49894 44.050945 53.141499 58.59605 62.898598 70.430237 73.460785 80.992432 87.348076 92.80262 97.105171 100.13572 104.37827 107.40881 112.86337 118.92446 123.77247 133.06265 138.51721 144.57831 148.82085 153.1234 156.15395 162.21504 167.06305 173.39905 177.6416 183.7027 191.76889 198.13544 203.89545 209.95654 218.93254 226.8111 229.84164 232.87219 239.13184 245.49838 253.56458 257.83768 262.68567 266.0195 270.86749 275.14059 279.4137 284.26169 293.55188 297.79443 306.46716 311.92172 319.45337 328.1261 332.3992 337.24719 346.34866 351.80319 356.03485 364.11194 370.47849 376.23849 382.29959 391.2756 394.60941 400.06396 407.56616 411.80872 417.86981 420.88943">centerofmassispositionedoutside,thebodywillbereferredtoasaremotebodyforthis</tspan><tspan
             id="tspan170"
             y="161.395"
             x="0 6.0610962 11.515646 20.606199 26.060749 29.091297 35.152393 45.317493 53.196045 59.257141 68.501511 74.562607 77.593155 83.956436 88.804436 93.07753 97.925537 103.98663 108.83463 118.07901 121.10956 129.80847 134.11102 140.17212 145.32121 153.19977 163.65723 166.68777 177.14523 183.20633 188.66089 194.72198 198.99507 208.25035 213.70491 216.73546 222.19 232.34419 238.5602 242.8333 248.28784 261.77475 266.0173 272.0784 281.32278 287.0806 290.11115 294.95917 307.23407 312.68863 320.41882 326.47992 331.93445 341.02502 346.47955 349.5101 359.96756 369.81848 376.18503 381.94504 388.00613 398.16034 408.01126 411.04181 419.74072">domain.Thediferenceisshowninfgure4.2.Fromtheviewofdomain0body0isa</tspan><tspan
             id="tspan172"
             y="179.327"
             x="0 3.0305481 8.7905531 13.638556 19.093107 26.083658 32.450211 38.199303 44.260399 53.978226 59.432777 65.493874 75.514969 81.881523 87.641525 93.702621 103.42045 112.83501 115.86555 124.12811 133.54266 137.81575 142.66376 151.7543 157.20886 161.4514 170.25941 176.61505 182.37506 188.43616 193.28853 202.13362 210.00999 218.21254 222.45509 228.51619 237.3242 241.62674 247.0813 256.17184 264.97986 269.22241 272.25296 281.34351 290.15152 296.21262 301.66718 310.75772 316.21225 319.2428 329.26392 338.67847 346.55701 349.58755 352.6181 359.60867 365.97522 374.78323 379.0563 383.90433 387.23813 392.08615 396.35925 400.63232 405.48035 415.50143 419.74399">localbodyandbody1isaremotebody.Atthesametimedomain0willbereferredto</tspan><tspan
             id="tspan174"
             y="256.57901"
             x="207.144 212.59856">25</tspan></text>
</g></g></g></svg>